<svg width="600" height="300" xmlns="http://www.w3.org/2000/svg">
 <metadata>
 </metadata>

 <g>
  <title>background</title>
  <rect fill="none" id="canvas_background" height="402" width="582" y="-1" x="-1"/>
 </g>
 <g>
  <title>Layer 1</title>
  <path d="m47.720364,52.416424c-0.303951,1.823708 -0.865582,2.502926 -0.303951,2.735561c0.397133,0.164497 0.303951,-0.607903 0.607903,-0.607903c0.303951,0 0.392975,-0.089024 0.607903,-0.303951c0.214928,-0.214928 0.280815,-0.795536 0,-0.911854c-0.397133,-0.164497 -0.607903,0 -0.607903,-0.303951c0,-0.303951 -0.250381,-0.460106 -0.911854,-0.303951c-0.295822,0.069832 -0.607903,0 -0.607903,-0.303951c0,-0.303951 0,-0.607903 0,-0.911854c0,-0.911854 0.347809,-1.803692 0.607903,-2.431614c0.367825,-0.888012 0.911854,-2.127659 1.519756,-3.039513l0.303951,-0.607903l0.303951,-0.303951l-0.303951,-0.911854" id="svg_7" fill-opacity="null" stroke-opacity="null" stroke-width="1.5" stroke="#000" fill="none"/>
  <path d="m58.662613,53.024326c-0.303955,-0.911854 -1.371964,-1.269375 -1.215809,-0.607903c0.069832,0.295822 -0.392975,-0.214928 -0.607903,0c-0.214928,0.214928 0.214928,0.696926 0,0.911854c-0.214928,0.214928 -0.139454,-0.21077 -0.303951,-0.607903c-0.116318,-0.280815 -0.607903,0 -0.607903,-0.303951c0,-0.303951 0,-0.482002 0,-0.911854c0,-0.429852 -0.303951,-0.911854 -0.303951,-1.215805c0,-0.303951 -0.271862,-1.279987 0,-1.823711c0.679657,-1.35931 1.519756,-1.519756 1.519756,-1.823708c0,-0.607903 0.631039,-0.795536 0.911854,-0.911854c0.397133,-0.164497 0.79554,-0.631039 0.911858,-0.911854c0.493492,-1.191395 1.448441,-1.262077 1.215805,-1.823708c-0.164497,-0.397133 -0.3974,-0.66444 0,-1.215805c0.502678,-0.69743 0.911854,-1.215805 1.215805,-1.823708l-0.303951,0" id="svg_8" fill-opacity="null" stroke-opacity="null" stroke-width="1.5" stroke="#000" fill="none"/>
  <path d="m89.969597,44.513687c0.911858,1.823708 1.59108,2.477882 1.823715,3.039513c0.164497,0.397129 0.303947,0.911854 0.303947,1.215805c0,0.303951 0.052612,0.563141 0.303955,0.911858c0.3974,0.551365 0.420265,0.93499 0.303947,1.215805c-0.164497,0.397129 -0.210503,0.664436 -0.607903,1.215805c-0.251335,0.348713 -0.758728,0.883827 -0.91185,2.127659c-0.074272,0.603348 -0.639336,0.579433 -0.911858,0.911854c-0.694794,0.847515 -0.911858,1.823708 -1.215805,2.43161c-0.303955,0.607903 -0.421005,1.632832 -1.215805,2.735561c-0.502678,0.69743 -1.061844,1.482845 -1.215805,2.431614c-0.194748,1.200108 -0.339172,2.116661 -0.607903,3.039513c-0.350388,1.203247 -0.352135,2.057617 -0.303955,2.735558c0.068138,0.958763 -0.607903,1.51976 -0.607903,1.823715c0,0.607903 -0.139671,1.232071 0,1.823708c0.156158,0.661476 0.093452,1.272346 -0.303947,1.823708c-0.251343,0.348717 -0.303955,0.91185 -0.303955,2.127655c0,0.607903 -0.303947,1.51976 -0.303947,2.127663c0,0.303947 0.303947,0.303947 0.303947,0.91185c0,0.607903 0.554543,0.333702 0.911858,0.911858c0.159798,0.258553 0,0.607903 0,0.91185c0,0.303955 0,0.607903 0,0.911858c0,0.607903 0.13945,0.81868 0.303947,1.215805c0.116318,0.280815 0.11631,-0.023132 0,-0.303947c-0.164497,-0.397133 -0.303947,-1.215813 -0.607903,-1.51976l-0.91185,-3.343468" id="svg_9" fill-opacity="null" stroke-opacity="null" stroke-width="1.5" stroke="#000" fill="none"/>
  <path d="m79.027351,46.033443c2.43161,-1.519756 3.557892,-2.536835 4.255318,-3.039513c0.551369,-0.3974 1.126282,-0.713127 1.823708,-1.215805c0.551369,-0.3974 1.543602,-0.544029 2.43161,-0.911854c0.627922,-0.260094 2.089989,-0.712204 3.647423,-1.215805c1.192436,-0.385578 2.735558,0 3.951363,-0.303951c1.215805,-0.303951 2.127663,-0.303951 3.039513,-0.607903c0.911858,-0.303951 1.466187,-0.451748 2.127663,-0.607903c0.591644,-0.139668 1.215805,0 1.823708,0c0.607903,0 0.91185,0 1.215805,0c0.303947,0 0.303947,-0.303951 0,-0.303951l-0.303955,0.303951l-0.303947,0l0,-0.607903" id="svg_10" fill-opacity="null" stroke-opacity="null" stroke-width="1.5" stroke="#000" fill="none"/>
  <path d="m96.04863,74.908821c3.039513,-1.215805 3.7836,-1.040367 4.559265,-1.519753c0.578156,-0.357315 0.563141,-0.96447 0.911858,-1.215805c0.551369,-0.3974 1.12262,-0.74736 1.519753,-0.911858c0.280815,-0.116318 0.514725,-0.747353 0.911858,-0.91185c0.280815,-0.116318 0.392982,-0.089035 0.607903,-0.303955c0.21492,-0.21492 0.538071,-0.31208 0.607903,-0.607903c0.156158,-0.661476 0.696938,-1.000885 0.911858,-1.215805c0.21492,-0.21492 0.538071,-0.616035 0.607903,-0.911858c0.156151,-0.661476 0.607903,-0.607903 0.91185,-0.91185c0.303955,-0.303955 0.911858,-0.303955 1.823708,-0.303955c0.911858,0 1.786797,-0.149986 2.735565,-0.303947c0.900078,-0.146057 1.238937,-0.11631 1.519753,0c0.397133,0.164497 0.69693,0.696922 0.911858,0.91185c0.214928,0.214928 0.209503,0.632294 0,1.51976c-0.156158,0.661476 -0.451752,1.162231 -0.607903,1.823708c-0.139664,0.591644 0.303947,1.823708 0.303947,2.735565c0,0.607903 0.097374,1.223656 0,1.823708c-0.153961,0.948761 -0.234116,1.223938 -0.303947,1.519753c-0.156158,0.661476 -0.67923,1.262077 -0.911858,1.823708c-0.164497,0.397133 -0.735214,1.039169 -1.215805,1.51976c-0.480591,0.480583 -1.122627,1.355255 -1.519753,1.519753c-0.280815,0.116318 -0.960266,-0.11834 -1.823708,0.303955c-0.984474,0.481491 -1.848099,0.817406 -2.735565,0.607903c-0.661476,-0.156158 -1.215805,-0.607903 -1.823708,-0.607903c-0.303955,0 -0.664436,-0.818405 -1.215805,-1.215805c-0.697426,-0.502678 -1.122353,-0.968391 -1.51976,-1.51976c-0.251335,-0.348709 -0.35656,-0.563133 -0.607903,-0.91185c-0.3974,-0.551361 -0.303947,-0.911858 -0.303947,-1.215805c0,-0.607903 0.1856,-1.264221 0.607903,-2.127663c0.481491,-0.984474 1.215805,-1.823708 1.823708,-2.735558c0.607903,-0.911858 0.874664,-1.539818 1.215805,-2.127663c0.550072,-0.947868 1.215805,-1.51976 1.51976,-2.127663c0.303947,-0.607903 0.518875,-1.000877 0.303947,-1.215805c-0.21492,-0.21492 0.303955,-0.303947 0.303955,-0.607903l-0.607903,-0.607903" id="svg_11" fill-opacity="null" stroke-opacity="null" stroke-width="1.5" stroke="#000" fill="none"/>
  <path d="m124.316101,76.428581c2.127663,4.86322 2.23439,6.44249 1.51976,7.598785c-0.798988,1.292786 -0.902298,2.556862 -1.51976,3.647415c-1.058937,1.870277 -2.344719,2.495949 -3.039513,3.34346c-0.545044,0.664848 -0.91185,1.215805 -1.215805,1.51976c-0.303947,0.303947 -0.116318,0.327095 0,0.607903c0.164497,0.397125 -0.303947,0 -0.607903,0l0,-1.823708" id="svg_12" fill-opacity="null" stroke-opacity="null" stroke-width="1.5" stroke="#000" fill="none"/>
  <path d="m148.632217,75.212776c2.127655,-2.43161 3.039505,-3.039505 3.647415,-3.647415c0.607895,-0.607903 0.91185,-0.911858 0.91185,-1.51976c0,-0.607903 0.957748,-0.740005 1.51976,-1.51976c0.355453,-0.493156 -0.13945,-0.818672 -0.303955,-1.215805c-0.116318,-0.280807 -0.303955,-0.607903 0,-0.91185c0.303955,-0.303955 -0.069839,-0.616035 0,-0.911858c0.156158,-0.661476 0.139465,-0.514732 0.303955,-0.91185c0.232635,-0.561623 0.30394,-0.303955 -0.303955,-0.303955c-0.303955,0 -0.03688,-0.34082 0.607895,0.303955c0.21492,0.21492 0.911865,0.607903 2.431625,0.607903c0.607895,0 1.215805,0.607903 1.519745,0.91185c0.303955,0.303955 1.162231,1.059654 1.823715,1.215805c0.887451,0.209496 2.099625,-0.150826 3.34346,-0.303947c0.905014,-0.111412 1.215805,-0.303955 1.51976,-0.303955c0.607895,0 1.238937,-0.187622 1.51976,-0.303947c0.397125,-0.164497 0.631027,-0.491585 0.91185,-0.607903c0.397141,-0.164497 0.214935,-0.214928 0,0c-0.429855,0.429855 -0.964462,0.259186 -1.215805,0.607903c-0.3974,0.551369 -0.990677,0.842125 -1.51976,1.519753c-1.090714,1.396957 -1.51976,2.431618 -2.127655,3.343468c-0.60791,0.911858 -1.017075,1.430229 -1.51976,2.127663c-0.3974,0.551361 -0.510513,1.223656 -0.607895,1.823708c-0.153961,0.948761 -0.375275,1.262077 -0.60791,1.823708c-0.164505,0.397133 -0.607895,0.303947 -0.607895,0.607903c0,0.303947 0.25058,0.33371 0.607895,0.91185c0.319595,0.517113 0.089035,0.518875 0.303955,0.303955c0.214935,-0.214928 0.607895,0 1.215805,0c0.607895,0 1.00087,0.518875 1.215805,0.303947c0.21492,-0.21492 0.360489,-0.397392 0.91185,0c0.697433,0.502678 0.968384,0.701355 1.51976,0.303955c1.046143,-0.754013 1.482849,-1.365791 2.43161,-1.51976c0.600067,-0.097382 1.432861,-0.368294 2.127655,-1.215805c0.545044,-0.664848 1.215805,-1.215805 2.12767,-1.823708c0.91185,-0.607903 1.014435,-1.310036 1.519745,-2.127655c0.451981,-0.731316 1.039169,-1.343117 1.51976,-1.823708c0.480591,-0.480591 0.91185,-0.911858 1.215805,-1.215805c0.303955,-0.303955 0.07132,-0.654175 0.303955,-1.215813c0.164505,-0.397133 0.964462,-0.563141 1.215805,-0.91185c0.3974,-0.551361 0.491577,-0.934998 0.607895,-1.215805c0.164505,-0.397133 0.60791,-0.607903 0.60791,-0.911858c0,-0.303947 -0.13945,-0.514717 -0.303955,-0.91185c-0.116318,-0.280815 0.08902,-0.214928 0.303955,0c0.21492,0.21492 -0.13945,0.514717 -0.303955,0.91185c-0.232635,0.56163 -0.241318,1.546341 -0.91185,3.039513c-0.556854,1.240028 -1.02153,2.800949 -1.823715,4.863228c-0.492783,1.266838 -0.755692,2.074081 -0.91185,2.735558c-0.139664,0.591637 0.093445,1.272339 -0.303955,1.823708c-0.251328,0.348709 0.03688,1.48288 -0.607895,2.127663c-0.214935,0.214928 -0.116318,-0.327095 0,-0.607903c0.164505,-0.397133 0.518875,-0.822823 0.303955,-0.607903c-0.21492,0.21492 -0.069839,-0.008133 0,-0.303955c0.156143,-0.661469 1.03009,-1.111221 1.8237,-2.127655c1.090714,-1.396957 1.98085,-2.289261 3.34346,-3.95137c0.694794,-0.847511 1.215805,-1.823708 2.12767,-2.43161c0.91185,-0.607903 1.584106,-1.128914 2.43161,-1.823708c0.664841,-0.545044 1.343109,-1.039177 1.8237,-1.51976c0.480591,-0.480591 1.195786,-0.955711 1.823715,-1.215805c0.888016,-0.367821 1.122635,-0.747353 1.51976,-0.91185c0.56163,-0.232628 0.915771,0.048691 1.215805,0c0.948761,-0.153969 1.730515,-0.747356 2.127655,-0.911854c0.280823,-0.116318 0.607895,0 0.91185,0c0.303955,0 0.60791,0 0.60791,0.607899c0,0.607903 -0.303955,1.215805 -0.303955,1.823708c0,0.911858 -0.440247,2.068596 -0.91185,3.343468c-0.434799,1.175377 -0.91185,3.039513 -1.215805,3.95137c-0.30394,0.91185 -1.038269,1.751091 -1.51976,2.735558c-0.422302,0.863449 -0.451752,1.466187 -0.60791,2.127663c-0.139664,0.591637 -0.919983,0.84201 -1.215805,0.91185c-0.661469,0.156158 -0.16449,0.210777 0,0.607903c0.116318,0.280815 -0.023132,0.491592 -0.30394,0.607903c-0.794266,0.328995 -0.81868,1.051308 -1.215805,1.215805c-0.280823,0.116318 0.056534,-0.51445 0.607895,-0.91185c1.394852,-1.005356 1.823715,-2.43161 2.735565,-3.647415c0.91185,-1.215805 1.738297,-2.221947 2.735565,-3.039513c0.847519,-0.694794 2.191986,-1.736816 3.039505,-2.43161c0.664856,-0.545044 1.171036,-1.268417 1.51976,-1.51976c0.551376,-0.3974 0.75206,-0.653297 0.91185,-0.91185c0.357315,-0.578156 0.919998,-0.538078 1.215805,-0.60791c0.661484,-0.156151 0.911865,-0.303947 1.51976,-0.303947c0.303955,0 0.60791,0 0.91185,0c0.303955,0 0.443405,0.21077 0.60791,0.607903c0.232635,0.56163 0.139664,1.232071 0,1.823708c-0.156158,0.661476 -0.356567,1.474991 -0.60791,1.823708c-0.3974,0.551361 -0.164276,0.928123 -0.30394,1.51976c-0.156158,0.661476 -0.234116,0.919983 -0.303955,1.215805c-0.156158,0.661476 -0.536591,0.958122 -0.303955,1.519753c0.164505,0.397133 0.21077,0.74736 0.60791,0.911858c0.280807,0.11631 0.607895,-0.303955 0.91185,-0.303955c0.303955,0 1.215805,-0.303947 1.8237,-0.303947c0.60791,0 1.272339,0.093452 1.823715,-0.303955c0.697418,-0.502678 1.255936,-0.837479 2.43161,-1.519753c0.947861,-0.550064 1.215805,-0.911858 1.51976,-1.215805c0.303955,-0.303955 0.81868,-0.443405 1.215805,-0.607903c0.280823,-0.116318 0.312088,-0.234123 0.607895,-0.303955c0.661484,-0.156151 0.911865,-0.303955 1.51976,-0.607903c0.60791,-0.303955 1.162445,-0.333694 1.51976,-0.91185c0.159805,-0.25856 0.045395,-0.144157 0.303955,-0.303955c0.57814,-0.357315 0.735214,-1.039162 1.215805,-1.519753c0.480591,-0.480583 0.563126,-1.572372 0.91185,-1.823715c0.551361,-0.3974 1.893112,-0.258942 2.735565,-0.607903c0.79425,-0.328995 1.162231,-0.755699 1.8237,-0.91185c0.295822,-0.069832 0.911865,-0.303955 1.51976,-0.303955c0.60791,0 1.215805,0 1.823715,0c0.607895,0 1.00087,0.089027 1.215805,0.303955c0.21492,0.21492 0.431259,0.735214 0.91185,1.215805c0.480591,0.480591 0.964462,0.867088 1.215805,1.215805c0.3974,0.551369 0.206589,1.527611 0.303955,2.127663c0.153961,0.948761 0.139664,1.232071 0,1.823708c-0.156158,0.661476 -0.303955,1.215797 -0.911865,1.823708c-0.30394,0.303947 -1.215805,0.911858 -1.519745,1.215805c-0.607895,0.60791 -1.310028,1.014427 -2.12767,1.519753c-0.731308,0.451973 -1.352722,1.048782 -2.127655,1.823708c-0.774933,0.774925 -1.996124,1.605858 -2.43161,2.127663c-0.973785,1.166794 -1.734192,1.32103 -2.43161,1.823708c-0.551376,0.397408 -1.232071,0.468231 -1.823715,0.607903c-0.661469,0.156158 -1.215805,0.303955 -1.8237,0.303955c-0.60791,0 -0.6987,0.623535 -1.215805,0.303947c-0.578156,-0.357315 -0.60791,-1.215805 -0.60791,-2.127655c0,-0.911858 0.87822,-2.139229 1.51976,-3.95137c0.866684,-2.448074 1.578751,-3.917496 2.43161,-5.471123c0.654114,-1.191582 1.51976,-2.43161 1.823715,-3.647415l0.30394,-0.911858l0,-0.303955l0.303955,-0.91185" id="svg_13" fill-opacity="null" stroke-opacity="null" stroke-width="1.5" stroke="#000" fill="none"/>
  <path d="m246.200592,77.340431c2.735565,-1.519753 3.695831,-1.70536 4.55928,-2.127655c0.984467,-0.481483 1.429367,-1.380348 2.43161,-1.823708c1.146088,-0.506996 1.8237,-0.607895 2.43161,-1.215805c0.607895,-0.607903 1.280136,-1.128922 2.12764,-1.823708c0.664856,-0.545044 1.430267,-1.624977 2.127686,-2.127663c0.551361,-0.397392 1.280121,-0.824966 2.127655,-1.51976c0.664856,-0.545044 1.21579,-1.215805 1.8237,-2.127655c0.60791,-0.911854 1.577576,-2.091648 2.127655,-3.039516c0.341156,-0.587841 0.665741,-1.179794 1.21582,-2.127659c0.341156,-0.587841 0.847961,-1.239647 1.21579,-2.127659c0.260101,-0.627922 0.911865,-1.823708 1.21582,-2.735561c0.303955,-0.911854 0.710449,-1.613983 1.21579,-2.43161c0.451965,-0.731312 0.562927,-1.589169 0.911865,-2.43161c0.4935,-1.191402 1.059662,-1.770149 1.21579,-2.431614c0.209473,-0.887463 0,-1.215805 0,-1.823708c0,-0.607903 0.139648,-1.232063 0,-1.823708c-0.156128,-0.661465 -0.451721,-1.162231 -0.60788,-1.823708c-0.069824,-0.295818 -0.210785,-0.747356 -0.60791,-0.911854c-0.280823,-0.116318 -0.303955,-0.303951 -0.911865,-0.303951c-0.60791,0 -0.788422,0.459881 -1.519745,0.911854c-0.817627,0.505322 -1.584106,0.82497 -2.43161,1.519756c-0.997284,0.81757 -1.751068,1.646168 -2.735565,2.127659c-0.863464,0.422295 -1.584076,0.824959 -2.43161,1.519756c-0.997284,0.817562 -1.584076,1.12891 -2.43161,1.823708c-0.664856,0.545044 -1.519775,1.519768 -2.127655,2.127663c-0.911865,0.911865 -1.577606,1.483742 -2.12767,2.43161c-0.682266,1.175678 -0.978775,2.369267 -1.8237,3.343464c-0.995758,1.148109 -1.677597,2.601276 -2.43161,3.647415c-0.7948,1.102734 -0.933731,2.113457 -1.51976,3.039516c-0.947739,1.497639 -1.006302,2.455997 -1.215805,3.343464c-0.312317,1.322952 -0.702347,1.848099 -0.91185,2.735565c-0.156158,0.661476 -0.60791,1.215805 -0.60791,2.127655c0,0.607903 0.13945,0.818672 0.303955,1.215805c0.232635,0.56163 0,1.51976 0,2.127663c0,0.91185 0.303955,1.519753 0.303955,2.127655c0,0.303955 -0.465256,1.004402 0,2.127663c0.16449,0.397125 0.607895,0.91185 0.91185,1.215805c0.303955,0.303947 0.607895,0.91185 0.607895,1.215805c0,0.607903 -0.093445,0.968399 0.303955,1.51976c0.251343,0.348709 0.91185,0.607903 1.215805,1.215805c0.303955,0.607903 1.223648,0.814468 1.823715,0.91185c0.948761,0.153969 1.894821,0.154121 3.34346,-0.607903c0.969894,-0.510201 1.872116,-1.401421 2.73555,-1.823708c0.984497,-0.481499 1.95105,-0.735229 2.43161,-1.215805c0.480591,-0.480591 0.969696,-1.483749 1.519775,-2.43161c0.341156,-0.587837 0.794495,-1.002136 1.519745,-1.823708c0.449799,-0.509529 0.60791,-0.911858 0.60791,-1.215805c0,-0.303955 -0.21051,-0.664436 -0.60791,-1.215805c-0.251343,-0.348717 -0.858276,-0.755699 -1.519745,-0.911858c-0.295837,-0.069832 -0.934998,-0.491585 -1.21582,-0.607903c-0.397125,-0.164497 -1.21579,-0.303947 -1.519745,-0.303947c-0.60791,0 -0.911865,0 -0.60791,0c0.303955,0 0.303955,-0.303955 0.60791,-0.303955c0.303955,0 0.920959,0.452507 2.127655,0.303955c1.243835,-0.153122 2.43161,0 3.64743,-0.303955c1.21579,-0.303947 1.734192,-0.71312 2.43161,-1.215805c0.551361,-0.397392 1.039154,-0.735222 1.519745,-1.215805c0.480591,-0.480591 1.21579,-0.91185 1.519745,-1.215805c0.60791,-0.607903 1.262085,-0.679222 1.82373,-0.911858c0.397125,-0.164497 0.911835,-0.911858 1.8237,-1.823708c0.303955,-0.303947 0.60791,-0.911842 0.911865,-1.519753c0.303925,-0.607895 0.747345,-0.818672 0.911835,-1.215805c0.116333,-0.280815 0.356567,-0.563137 0.60791,-0.911854c0.3974,-0.551369 1.0513,-0.818691 1.21579,-1.215809c0.116302,-0.280815 0.210785,-0.443405 0.60791,-0.607903c0.280823,-0.116318 0.303955,-0.303951 0.303955,-0.303951c-0.303955,0 -0.40918,0.214413 -0.911865,0.911854c-0.3974,0.551361 -0.66571,1.483749 -1.21579,2.431614c-0.682281,1.175678 -0.931519,2.552532 -1.8237,4.255314c-0.705322,1.346184 -1.692871,2.472046 -2.127655,3.647423c-0.471588,1.274887 -1.514191,2.040115 -1.82373,3.647415c-0.11496,0.596931 -0.156158,1.162231 0,1.823708c0.069824,0.295815 -0.097382,0.919701 0,1.519753c0.153961,0.948769 0.40918,1.126274 0.911865,1.823708c0.3974,0.551361 0.911865,0.60791 1.21579,0.911858c0.303955,0.303955 1.268433,0.348709 1.519775,0c0.3974,-0.551361 0.60791,-0.911858 0.911835,-0.911858c0.303955,0 0.210785,-0.164497 0.60791,0c0.280823,0.116318 0.360504,0.3974 0.911865,0c0.348724,-0.251335 0.968384,-0.3974 1.519745,0c0.348724,0.251343 0.637665,0.053368 1.21582,-0.303947c0.258545,-0.159798 0.570679,-0.32402 0.911835,-0.911858c0.550079,-0.947861 0.847992,-1.543594 1.21582,-2.43161c0.260101,-0.627922 0.536591,-1.262077 0.303955,-1.823708c-0.16449,-0.397133 -0.07132,-0.958122 -0.303955,-1.519753c-0.16449,-0.397133 -0.44342,-0.818672 -0.60791,-1.215805c-0.116333,-0.280815 -0.303955,-0.303955 -0.60791,-0.303955c-0.303955,0 -0.303955,-0.303947 0,-0.303947c0.303955,0 0.392975,0.089027 0.60791,0.303947c0.429871,0.429855 1.220367,0.378227 1.8237,0.303955c2.487671,-0.306244 4.625916,-1.07383 6.686951,-2.127663c1.578003,-0.806854 2.872498,-1.656693 3.6474,-2.43161c0.774933,-0.774933 1.432861,-1.584106 2.127655,-2.43161c0.817566,-0.997284 1.272369,-1.122337 1.82373,-1.519756c0.348694,-0.251335 0.088989,-1.000877 0.303925,-1.215805c0.214935,-0.214928 0.51889,-0.214928 0.303955,0c-0.214935,0.214928 -0.670746,0.247009 -1.21579,0.911854c-0.694794,0.847511 -1.641571,1.733818 -2.735565,3.34346c-1.377502,2.026741 -2.334167,3.517059 -3.03952,4.863228c-0.446106,0.851387 -0.514435,1.576294 -0.911835,2.127655c-0.502686,0.697441 -0.824982,1.584099 -1.519775,2.43161c-0.545044,0.664848 -0.60791,1.51976 -0.60791,1.823708c0,0.607903 0.25058,1.245552 0.60791,1.823708c0.319611,0.517113 1.051331,0.818672 1.21582,1.215805c0.116333,0.280815 0.60965,0.968521 1.519745,0.911858c2.445801,-0.152275 4.010956,-1.305611 5.775085,-2.127663c1.404816,-0.654617 2.43161,-0.91185 3.03952,-0.91185l0.303925,0l0.303955,-0.303955l0.303955,-0.91185" id="svg_14" fill-opacity="null" stroke-opacity="null" stroke-width="1.5" stroke="#000" fill="none"/>
  <path d="m318.541016,73.996971c1.519745,-1.215805 2.494476,-1.766762 3.03952,-2.43161c0.694794,-0.847519 1.259644,-1.195786 1.519745,-1.823708c0.367828,-0.888016 1.321045,-1.734177 1.82373,-2.431618c0.3974,-0.551361 0.60788,-1.215805 0.60788,-1.519753c0,-0.303955 0.08902,0.214928 0.303955,0c0.214935,-0.214928 0,-0.607903 0,-0.911858c0,-0.303947 -0.08902,-0.392975 -0.303955,-0.607903c-0.214935,-0.214928 -0.303955,-0.303947 -0.303955,-0.607899c0,-0.303951 -0.214905,-0.51886 0,-0.303951c0.214935,0.214928 0.51889,0.214928 0.303955,0c-0.214935,-0.214928 -0.303955,0.303951 -0.303955,0.607903c0,0.303947 0.303955,0.607903 0.911865,0.91185c0.60791,0.303955 1.21582,0.303963 1.519745,0.607903c0.303955,0.303963 0.850159,0.685867 1.21582,0.911858c0.817627,0.505325 1.875854,1.163666 2.735565,0.303947c0.214935,-0.21492 0.08902,0.214928 0.303955,0c0.214935,-0.21492 0.60791,-0.607903 0.303955,-0.607903c-0.303955,0 0.303925,0.303955 0.303925,0c0,-0.303947 0,0 -0.303925,0c-0.303955,0 -0.303955,0.303955 -0.60791,0.607903c-0.303955,0.303955 -0.67923,0.95813 -0.911865,1.51976c-0.32901,0.794266 -1.371735,1.396355 -1.8237,2.127663c-0.50531,0.817619 -0.911865,1.8237 -1.21582,2.43161c-0.303925,0.607895 -0.911835,1.519753 -1.21579,2.127655c-0.303955,0.607903 -0.21051,1.272339 -0.60791,1.823708c-0.251343,0.348717 -0.69693,0.08905 -0.911835,0.303955c-0.214935,0.21492 0.149963,0.570999 0.303925,1.519753c0.048676,0.300034 -0.09317,0.74736 0.303955,0.911858c0.280823,0.116318 0.911865,0.303947 1.21582,0.303947c0.303955,0 0.858276,-0.156151 1.519745,0c0.295837,0.069832 0.867096,-0.35656 1.21582,-0.607903c0.551331,-0.397392 1.21579,-0.607903 1.8237,-0.607903c0.60791,0 1.239624,-0.240074 2.127655,-0.607903c0.62793,-0.260094 1.272339,-0.818413 1.8237,-1.215805c0.348724,-0.251343 0.976227,-0.824944 1.82373,-1.519753c0.664825,-0.545036 1.432861,-1.280144 2.127655,-2.127663c0.545044,-0.664848 1.059631,-1.162231 1.21579,-1.823708c0.069824,-0.295815 0.356567,-0.867088 0.60791,-1.215805c0.3974,-0.551369 0.1026,-1.006081 0.60791,-1.823708c0.225983,-0.365662 0.563141,-0.96447 0.911835,-1.215805c0.551361,-0.397415 1.076355,-0.818672 0.911865,-1.215805c-0.116302,-0.280815 -0.42984,-0.482002 0,-0.911858c0.214935,-0.214928 0.214935,-0.518875 0,-0.303947c-0.214935,0.21492 0.210785,0.164497 0.60791,0c0.280823,-0.116318 0.303955,-0.607895 0.60791,-0.911854c0.303925,-0.303944 1.076324,-0.514721 0.911835,-0.911854c-0.116302,-0.280819 -0.44342,0.21077 -0.60791,0.607903c-0.116333,0.280815 -0.188965,0.61887 -0.303925,1.215805c-0.30954,1.607292 -1.016174,2.697884 -1.519775,4.255318c-0.38559,1.192436 -0.884399,2.221306 -1.519745,3.343468c-0.617462,1.090561 -0.947083,2.116661 -1.21582,3.039513c-0.350403,1.203247 -0.303955,1.519753 -0.303955,1.823708c0,0.303947 0,0.91185 0,1.519753c0,0.303955 0.192535,0.918694 0.303955,1.823708c0.153137,1.243835 0.51474,2.26712 0.911865,2.431618c0.280823,0.116318 0.60791,0 0.911865,0c0.303925,0 0.550934,0.241089 1.21579,-0.303955c0.847534,-0.694794 1.465027,-2.132545 3.343475,-3.95137c1.574646,-1.524658 3.343445,-2.431602 4.86322,-3.647415c1.519745,-1.215797 2.43161,-2.127647 3.03952,-2.735558c0.60788,-0.607895 1.122345,-1.272339 1.519745,-1.823708c0.251343,-0.348717 0.392975,-0.69693 0.60791,-0.911858c0.214935,-0.214928 -0.09317,-0.13945 0.303955,-0.303947c0.280792,-0.116302 0.397125,-0.772392 0,-0.60791c-0.280823,0.11631 -0.08902,0.392982 -0.303955,0.60791c-0.214935,0.21492 -0.451752,0.858276 -0.60791,1.519753c-0.139679,0.591637 -0.714355,1.290955 -0.911865,2.127663c-0.220825,0.935463 0.303955,1.519753 0,2.127655c-0.303955,0.607903 -0.733795,1.089905 -0.303955,1.51976c0.214935,0.214928 0.250397,0.451744 0.911865,0.607903c0.295837,0.069832 0.35022,-0.232635 0.911865,0c0.397125,0.164497 0.911835,0.303947 1.21579,0.303947c0.911865,0 1.426605,-0.13945 1.8237,-0.303947c0.280823,-0.116325 0.968414,-0.51445 1.519775,-0.911858c0.697449,-0.502678 1.519745,-1.215797 2.735565,-1.823708c1.21579,-0.607895 1.8237,-1.215805 2.127655,-1.519753c0.60791,-0.607903 1.171021,-1.268417 1.519745,-1.51976c0.551361,-0.3974 1.145996,-0.919983 1.21582,-1.215805c0.156158,-0.661476 0.755707,-0.858284 0.911835,-1.51976c0.069824,-0.295815 0.65332,-0.448105 0.911865,-0.607903c0.578156,-0.357315 0.65332,-0.752052 0.911865,-0.91185c0.578156,-0.357315 0.392944,-0.69693 0.60788,-0.911858c0.214935,-0.214928 0.60791,0 0.911865,0c0.303955,0 0.303955,0.303955 0.60791,0.607903c0.303955,0.303955 0.037201,0.627968 -0.303955,1.215805c-0.550079,0.947868 -0.911865,1.823723 -1.519745,3.03952c-0.303955,0.607903 -0.847992,1.543594 -1.21582,2.43161c-0.520203,1.255844 -1.352722,1.960625 -2.127655,2.735558c-0.774933,0.774925 -1.25177,1.37635 -1.519745,1.51976c-0.966248,0.517113 -0.60791,1.215805 -0.60791,1.519753c0,0 -0.280823,0.491585 0,0.607903c0.397125,0.164497 0.303955,-0.607903 0.303955,-0.303947c0,0.303947 -0.08902,0.21492 -0.303955,0c-0.214935,-0.214928 -0.303955,0.303947 -0.303955,0.607903c0,0.303947 -0.139465,0.514717 -0.303955,0.91185c-0.232635,0.56163 -0.214935,1.126785 0,0.911858c0.214935,-0.214928 0.023621,-0.473564 1.21582,-2.127663c0.753998,-1.046127 1.71698,-2.187157 2.43161,-3.34346c0.798981,-1.292778 2.239197,-2.327705 3.6474,-3.95137c0.995758,-1.148109 1.891388,-2.347717 3.03952,-3.34346c0.974213,-0.844917 2.127655,-1.215813 2.735565,-1.823715c0.303955,-0.303947 0.911835,-0.911858 1.8237,-1.823708c0.303955,-0.303947 0.631744,-0.544029 1.519745,-0.91185c0.62793,-0.260094 1.285248,-0.956875 2.127686,-0.607903c0.397095,0.164497 0.60788,0.303947 0.911835,0.303947c0.303955,0 0.392975,-0.089027 0.60791,-0.303947c0.214935,-0.214928 0.69693,-0.214928 0.911865,0c0.214935,0.21492 0.303925,0.303947 0.60788,0.607903c0.303955,0.303947 0.069824,0.31208 0,0.607903c-0.156158,0.661476 -0.266754,1.23587 -0.60788,1.823708c-0.550049,0.947876 -0.724976,1.936775 -1.519775,3.039513c-0.753998,1.046135 -1.174225,1.868332 -1.8237,2.43161c-1.148132,0.99575 -2.127655,2.127655 -3.03952,3.039513c-1.21579,1.215797 -1.519745,1.823708 -1.8237,2.43161c-0.303955,0.607903 -0.702362,1.240196 -0.911865,2.127663c-0.156158,0.661476 -0.60788,0.607925 -0.60788,0.91185c0,0.303925 0.392944,-0.08902 0.60788,-0.303947c0.214935,-0.214928 -0.139679,-0.624168 0,-1.215805c0.156158,-0.661476 1.348419,-1.045486 3.343475,-2.735565c1.31192,-1.111382 2.961365,-2.536346 4.559265,-3.647415c1.455109,-1.011787 2.848663,-1.332832 3.951385,-2.127655c0.697418,-0.50267 1.576294,-1.12236 2.127655,-1.51976c0.348724,-0.251335 0.60788,-0.303947 0.911835,-0.303947c0.60791,0 1.21582,0.303947 1.519775,0.303947c0.303955,0 0.615723,-0.097374 1.21579,0c0.948792,0.153969 1.332123,0.327095 1.21582,0.607903c-0.16449,0.397133 -0.303955,0.911858 -0.303955,1.51976c0,0.607903 0.139679,1.232071 0,1.823708c-0.156158,0.661476 -0.514465,1.576286 -0.911865,2.127655c-0.251343,0.348717 -0.16449,0.818672 0,1.215805c0.116333,0.280815 0.023132,0.491585 0.303955,0.607903c0.397125,0.164497 0.952301,0.173103 2.127655,0.607903c0.637451,0.235809 1.12265,0.7724 1.519775,0.607903c0.280823,-0.116318 0.088989,-0.392975 0.303925,-0.607903c0.214935,-0.214928 0.303955,-0.303947 0.60791,-0.607903l0,-1.215805" id="svg_16" fill-opacity="null" stroke-opacity="null" stroke-width="1.5" stroke="#000" fill="none"/>
  <path d="m416.109406,72.781166c3.03952,-3.039513 3.03952,-3.647415 3.03952,-4.255325c0,-0.303947 0.116333,-0.93499 0,-1.215805c-0.16449,-0.397133 -0.303955,-0.607903 -0.60791,-0.607903c-0.303955,0 -0.51474,-0.443405 -0.911865,-0.607903c-0.280823,-0.116318 -0.08902,-0.21492 -0.303955,0c-0.42984,0.429832 -0.51886,0.518883 -0.303925,0.303955c0.214935,-0.214928 -0.303955,-0.303955 -0.60791,-0.303955c-0.303955,0 -0.919708,0.097374 -1.519775,0c-0.948761,-0.153961 -1.519745,-0.303947 -1.8237,-0.303947c-0.303955,0 -0.392975,0.089027 -0.60791,0.303947c-0.42984,0.429832 -1.30481,0.089027 -1.519745,0.303955c-0.214935,0.21492 -0.259186,0.35656 -0.60791,0.607903c-0.551361,0.3974 -1.126251,1.017075 -1.8237,1.519753c-0.551361,0.397408 -0.968414,1.122368 -1.519745,1.51976c-0.348724,0.251343 -0.81842,0.968399 -1.21582,1.51976c-0.502686,0.697433 -0.824951,1.280151 -1.519745,2.127655c-0.545044,0.664848 -0.89624,1.914497 -1.21582,2.43161c-0.35733,0.578156 -0.755707,0.858292 -0.911835,1.51976c-0.209473,0.887459 -0.209473,1.544144 0,2.43161c0.156128,0.661469 0.303925,1.519753 0.303925,2.127663c0,0.303947 0.187653,1.238945 0.303955,1.519753c0.16449,0.397133 0.624176,0.164291 1.21582,0.303955c0.661469,0.156151 1.21579,0 1.8237,-0.607903c0.911865,-0.911858 1.939423,-1.07058 2.735565,-1.823715c1.104034,-1.044403 1.886566,-2.374664 2.43161,-3.039513c0.694794,-0.847511 1.111206,-1.637993 2.127655,-2.43161c1.396942,-1.090698 2.221283,-1.796242 3.343475,-2.43161c1.090546,-0.617455 1.572357,-0.867088 1.8237,-1.215805c0.3974,-0.551369 0.21051,-0.968384 0.60791,-1.519753c0.753998,-1.046135 1.126251,-1.624985 1.8237,-2.127663c0.551361,-0.397408 0.747375,-0.818672 0.911865,-1.215805c0.116333,-0.280815 0.44339,-0.210785 0.60788,-0.607903c0.116302,-0.280823 0.327087,-0.187637 0.60791,-0.303955c0.397125,-0.164497 0.888733,-0.795532 0.60791,-0.91185c-0.397125,-0.164497 -0.60791,0.30394 -1.21582,0.91185c-0.60788,0.607895 -1.278656,1.766769 -1.8237,2.431618c-0.694794,0.847511 -1.753632,1.638596 -2.43161,2.735558c-0.505341,0.817627 -0.570709,1.539825 -0.911835,2.127663c-0.550049,0.947876 -0.806641,1.430222 -0.303955,2.127655c0.3974,0.551361 0.16449,0.818672 0,1.215805c-0.232635,0.56163 0.187653,0.631035 0.303955,0.911858c0.16449,0.397118 0.911835,0.91185 1.21579,0.91185c0.303955,0 0.234131,0.312088 0.303955,0.607903c0.156158,0.661476 0.911865,0.607903 1.8237,0.607903c0.911865,0 1.613983,-0.102585 2.43161,-0.607903c0.731323,-0.451981 1.558899,-0.647614 2.43161,-0.91185c1.048889,-0.317581 1.787689,-0.969696 2.735565,-1.51976c0.58786,-0.341133 1.187347,-0.943275 1.519775,-1.215805c0.847504,-0.694794 1.568146,-0.793503 2.43161,-1.215805c0.984467,-0.481491 1.519745,-0.911842 2.43161,-1.519753c0.911835,-0.607895 1.310028,-1.014427 2.127655,-1.51976c1.096954,-0.677956 1.584076,-1.432854 2.43161,-2.127655c0.997253,-0.817558 1.810059,-1.686676 2.127655,-2.735565c0.176178,-0.581818 0.209503,-1.240196 0,-2.127663c-0.156158,-0.661476 -0.392975,-1.000874 -0.60791,-1.215801c-0.214935,-0.214928 -0.51474,-0.139454 -0.911865,-0.303951c-0.842438,-0.348942 -1.272339,-0.51445 -1.8237,-0.911854c-0.348724,-0.251343 -0.60791,-0.303955 -0.911835,-0.303955c-0.303955,0 -0.339935,0.160534 -0.60791,0.303955c-0.966248,0.517113 -1.0289,1.632839 -1.8237,2.735561c-0.502686,0.697433 -1.519775,1.519745 -2.127686,2.43161c-0.60788,0.911842 -1.097443,1.872124 -1.519745,2.735565c-0.481506,0.984474 -0.911865,1.215813 -1.21579,2.127655c-0.303955,0.911865 -0.164276,1.536026 -0.303955,2.127663c-0.156158,0.661476 -0.156158,1.162231 0,1.823708c0.069824,0.295815 0.187653,0.631035 0.303955,0.91185c0.328979,0.79425 0.81839,0.968399 1.21579,1.51976c0.502686,0.697433 0.919983,0.84201 1.21582,0.91185c0.661469,0.156158 1.092377,0.763824 1.8237,1.215805c0.817627,0.505318 1.807312,1.421524 3.343445,1.215813c0.673645,-0.09021 1.635498,-0.462692 2.43161,-1.215813c1.104034,-1.044403 1.917999,-2.042252 2.735565,-3.039513c0.694794,-0.847519 1.478882,-1.295944 2.735565,-3.039513c0.7948,-1.10273 0.911865,-2.127647 1.82373,-2.735558c0.911835,-0.607895 1.519745,-1.215805 1.8237,-1.823708c0.303955,-0.607903 1.280121,-0.824966 2.127655,-1.51976c0.664856,-0.545044 0.824951,-0.976196 1.519745,-1.823708c0.272522,-0.332428 0.451752,-0.554329 0.60791,-1.215805c0.069824,-0.295822 0.44342,-0.514725 0.60791,-0.911858c0.116302,-0.280807 0.60791,-0.607903 0.303955,-0.607903c-0.303955,0 0,0.607903 -0.60791,1.51976c-0.60791,0.91185 -0.911865,2.127663 -1.519745,3.343468c-0.60791,1.215813 -1.352112,2.068581 -1.82373,3.34346c-0.434814,1.175377 -1.635468,2.590332 -2.43161,3.343468c-1.104034,1.044395 -1.563599,2.107635 -1.8237,2.735558c-0.367828,0.888016 -0.60791,1.823708 -0.911865,2.127663c-0.60788,0.607895 -1.059631,0.250374 -1.21579,0.91185c-0.209503,0.887466 0.09317,1.684258 -0.303955,1.51976c-0.280823,-0.116318 0.21051,-0.360481 0.60791,-0.91185c1.005341,-1.394852 2.652435,-2.824814 3.951355,-3.95137c2.296204,-1.991501 3.753632,-2.852455 5.47113,-3.95137c1.639374,-1.048935 3.128784,-2.57547 4.86322,-3.647415c1.292786,-0.798988 2.127655,-1.519753 2.735565,-1.823708c0.60791,-0.303955 1.483734,-0.665733 2.43161,-1.215805c0.58786,-0.341141 1.21579,-0.303955 1.519745,-0.303955c0.303955,0 0.631042,-0.116318 0.911865,0c0.397125,0.164497 0.747375,0.21077 0.911865,0.607903c0.232635,0.56163 0,1.215813 0,1.823715c0,0.91185 -0.139465,1.426575 -0.303955,1.823708c-0.348938,0.842438 -0.60791,1.519753 -0.911865,2.127655c-0.303955,0.607903 -0.406555,1.310028 -0.911865,2.127663c-0.451965,0.7313 -1.268402,1.171043 -1.519745,1.519753c-0.3974,0.551361 -0.60791,0.91185 -0.60791,1.215805c0,0.303955 0,0.303955 0,0.607903c0,0.303955 -0.44339,0.818687 -0.60788,1.215805c-0.116302,0.280823 -0.15979,-0.349342 0,-0.607903c0.3573,-0.578133 1.327576,-1.387207 2.43161,-2.43161c0.796112,-0.75312 1.886566,-2.070702 2.43161,-2.735558c0.694794,-0.847511 1.21579,-1.519753 2.127655,-2.127663c0.911835,-0.607895 1.787689,-0.969681 2.735565,-1.519753c1.175659,-0.682266 2.184204,-1.122345 2.735565,-1.51976c0.348694,-0.251335 0.60788,-0.607903 1.21579,-0.607903c0.303955,0 0.60791,0 0.60791,0.303955c0,0.303947 -0.052612,0.867088 -0.303955,1.215805c-0.3974,0.551369 -0.431763,1.545837 -0.60791,2.127655c-0.317596,1.048897 -0.911835,1.51976 -0.911835,2.127663c0,0.303947 0,0.91185 0,1.215805c0,0.607903 0.303925,0.91185 0.60788,0.91185c0.303955,0 1.224701,0.179703 3.03952,0c1.542297,-0.152718 3.079956,-0.477058 4.25531,-0.91185c1.912354,-0.707413 2.949158,-1.380348 3.951385,-1.823708c1.146088,-0.506989 2.471741,-0.837494 3.6474,-1.51976c0.947876,-0.550072 1.536987,-0.886787 2.43161,-1.519753c1.240631,-0.877785 2.735565,-1.51976 3.64743,-2.127663c0.911865,-0.607903 1.667542,-0.858284 1.8237,-1.51976c0.139679,-0.591637 0.303955,-1.144051 0.303955,-1.823708c0,-0.679657 -0.360504,-0.818398 -0.911865,-1.215805c-0.697418,-0.502674 -1.21579,-0.91185 -1.519745,-1.215801c-0.303955,-0.303951 -0.60791,-0.303944 -0.911865,-0.607903c-0.303925,-0.303947 -0.514709,-0.74736 -0.911835,-0.911858c-0.280823,-0.116318 -0.60791,0 -1.21582,0c-0.60791,0 -1.278656,0.550961 -1.8237,1.215809c-0.694794,0.847515 -0.784088,1.871391 -1.519745,3.647415c-0.520172,1.255844 -1.437592,2.501183 -2.735565,3.95137c-0.860046,0.960884 -1.950134,1.751091 -2.43161,2.735558c-0.422302,0.863449 -0.911865,1.215805 -0.911865,2.127663c0,0.303947 -0.063873,0.935692 0.303955,1.823708c0.260101,0.627922 0.670776,0.854912 1.21579,1.519753c0.694794,0.847527 1.232086,1.380089 1.82373,1.51976c0.661438,0.156151 0.936218,0.094444 1.8237,0.303947c0.661469,0.156158 1.589478,0.507011 2.735565,0c1.002197,-0.443352 2.090729,-0.453934 3.03952,-0.607903c0.600037,-0.097374 0.70108,-0.443405 0.303955,-0.607903c-0.280823,-0.116325 -0.303955,-0.303947 -0.911865,-0.303947l0,-1.215805" id="svg_18" fill-opacity="null" stroke-opacity="null" stroke-width="1.5" stroke="#000" fill="none"/>
  <path d="m506.07901,80.075996c-2.735565,-1.215805 -3.178986,-0.701088 -3.343475,-0.303955c-0.116333,0.280815 -0.303955,0.911858 -0.303955,1.215805c0,0.607903 0.210785,1.355263 0.60791,1.51976c0.280823,0.116318 0.915802,0.048683 1.21579,0c0.948792,-0.153961 1.039185,-0.431267 1.519775,-0.911858c0.480591,-0.480591 0.303955,-1.215805 0.60791,-2.127655c0.303955,-0.911858 0.60788,-1.089905 0.60788,-1.51976c0,-0.429855 0.214935,-0.214928 0,0c-0.214935,0.214928 0.443604,0.928116 0.303955,1.51976c-0.312286,1.322937 -0.800415,1.830544 -0.911835,2.735565c-0.153137,1.243835 -0.793518,1.872124 -1.21582,2.735558c-0.481506,0.984482 -1.21579,1.823708 -1.519745,2.43161c-0.303955,0.607903 -0.670776,1.158859 -1.21582,1.823708c-0.694794,0.847519 -1.21579,1.51976 -1.519745,1.823708c-0.303955,0.303955 -0.818695,0.74736 -1.21582,0.911858c-0.280823,0.116318 -0.60788,0 -0.911835,0c-0.303955,0 -0.303955,-0.303955 -0.60791,-0.303955l-0.303955,0l0,-0.91185" id="svg_19" fill-opacity="null" stroke-opacity="null" stroke-width="1.5" stroke="#000" fill="none"/>
  <path d="m73.252274,137.218857c3.343468,-2.43161 4.653564,-3.258057 5.47113,-4.255325c0.694794,-0.847504 1.151924,-1.847565 1.519753,-2.735565c0.260094,-0.627914 0.570717,-1.539825 0.911858,-2.127655c0.550072,-0.947868 1.059647,-1.770134 1.215805,-2.43161c0.069832,-0.295822 0.18763,-0.631042 0.303947,-0.911858c0.164497,-0.397133 0.303955,-0.607903 0.303955,-0.91185c0,-0.303955 -0.089027,-0.214928 -0.303955,0c-0.21492,0.21492 -0.35656,0.259186 -0.607903,0.607903c-0.3974,0.551369 -0.533531,1.255928 -1.215805,2.43161c-0.550064,0.947861 -0.821999,1.82814 -0.91185,2.735565c-0.152718,1.542297 -0.15789,2.44339 -0.303955,3.34346c-0.153961,0.948761 -0.303947,1.823715 -0.303947,3.647415c0,1.215805 0,2.127655 0,3.03952c0,0.91185 0.147797,1.466171 0.303947,2.127655c0.139664,0.591629 0.164291,1.232071 0.303955,1.8237c0.156151,0.661484 0.303947,0.911865 0.303947,1.215805c0,0.303955 0.21077,0.443405 0.607903,0.60791c0.280815,0.116318 0.631042,-0.116318 0.911858,0c0.397133,0.164505 0.675598,0.387848 1.823708,-0.60791c1.298927,-1.126556 1.94075,-2.544693 2.735558,-3.647415c0.754021,-1.046143 1.24482,-2.120773 1.51976,-3.34346c0.340019,-1.5121 0.582832,-3.056717 1.215805,-3.95137c0.877762,-1.240631 1.190758,-1.637344 1.519753,-2.43161c0.116318,-0.280823 -0.443405,-0.818665 -0.607903,-1.215805c-0.116318,-0.280823 1.017075,-0.822327 1.51976,-1.51976c0.3974,-0.551361 0.607903,-0.91185 0.303955,-1.215797c-0.303955,-0.303955 -0.303955,0 -0.303955,0.607903c0,0.607895 0.037186,1.23587 -0.303947,1.8237c-0.550072,0.947876 -1.382568,1.449829 -1.823715,2.735565c-0.502983,1.465973 -0.153122,2.707535 0,3.95137c0.111412,0.905014 0.764061,1.466187 0.607903,2.127655c-0.069839,0.295822 0.563148,0.964478 0.911858,1.215805c0.551369,0.3974 1.178894,0.453949 2.127663,0.60791c0.300026,0.048691 1.519753,0 2.43161,-0.303955c0.91185,-0.303955 1.846848,-0.795532 2.127655,-0.91185c0.397133,-0.164505 0.702133,-0.406525 1.51976,-0.91185c0.731316,-0.451981 1.51976,-1.51976 2.43161,-2.43161c0.607903,-0.60791 1.273643,-1.787704 1.823708,-2.735565c0.341141,-0.587845 0.875847,-1.273636 1.823708,-1.823715c0.587837,-0.341141 1.51976,-0.91185 1.823708,-1.215805c0.303955,-0.303955 0.664444,-0.51445 1.215805,-0.91185c0.697433,-0.502686 1.215805,-0.91185 1.823708,-0.91185c0.607903,0 0.874672,0.931915 1.215805,1.519745c0.550072,0.947876 1.02327,1.526596 0.911858,2.43161c-0.153122,1.243851 -0.255577,1.875885 -0.607903,3.03952c-0.317581,1.048889 -1.014435,1.917938 -1.51976,2.735565c-0.451973,0.731308 -0.818405,1.272339 -1.215805,1.8237c-0.502686,0.697433 -1.122353,1.272339 -1.519753,1.823715c-0.251343,0.348724 -0.664436,0.818405 -1.215805,1.215805c-0.348717,0.251343 -0.327095,0.491577 -0.607903,0.607895c-0.397133,0.164505 -0.69693,0.08902 -0.911858,0.303955c-0.214928,0.214935 -0.443405,0.514725 -0.607903,0.91185c-0.116325,0.280823 0,0.60791 0.303955,0.303955c0.303947,-0.303955 0.578369,-0.676041 1.215805,-0.91185c1.175377,-0.434799 1.839973,-0.747574 2.43161,-0.60791c0.661476,0.156158 1.215805,0.60791 1.823708,1.215805c0.60791,0.60791 1.059647,1.162231 1.215805,1.823715c0.209503,0.887451 0.303947,1.51976 0.303947,2.735565c0,0.607895 0.194748,2.143356 0,3.34346c-0.153961,0.948761 0.045219,2.168304 -0.303947,3.647415c-0.156158,0.661484 -0.947075,1.508774 -1.215805,2.43161c-0.350388,1.203247 -1.038269,2.055054 -1.51976,3.03952c-0.422295,0.863434 -0.258957,1.589172 -0.607903,2.43161c-0.164497,0.397125 -0.818398,0.968384 -1.215805,1.51976c-0.502678,0.697418 -0.91185,0.91185 -1.519753,1.215805c-0.607903,0.30394 -0.874947,0.453934 -1.823715,0.607895c-0.600052,0.097382 -1.543587,0.063873 -2.43161,-0.303955c-0.627914,-0.260086 -1.543594,-0.544022 -2.43161,-0.91185c-0.627922,-0.260101 -1.171043,-0.660507 -1.519753,-0.91185c-0.551361,-0.3974 -0.989822,-0.546204 -1.215805,-0.91185c-0.505333,-0.817627 -0.209503,-1.544159 0,-2.43161c0.312309,-1.322952 1.340103,-2.363632 2.127655,-3.95137c0.727341,-1.466354 1.483864,-2.75769 2.43161,-4.255325c0.586037,-0.926056 1.553848,-1.798874 2.43161,-3.039505c0.632973,-0.894653 1.215805,-1.51976 1.823715,-2.12767c0.607903,-0.607895 1.092407,-1.371735 1.823708,-1.8237c0.817627,-0.505325 1.51976,-0.911865 1.823708,-1.215805c0.60791,-0.607895 0.941597,-1.4664 1.519753,-1.823715c0.25856,-0.159805 0.448112,-0.34935 0.607903,-0.607895c0.357315,-0.578156 0.867096,-0.964478 1.215805,-1.215805c0.551369,-0.3974 0.79554,-0.631042 0.911858,-0.911865c0.164497,-0.397125 0.392975,-0.696915 0.607903,-0.91185c0.429855,-0.429855 0.7724,0.09317 0.607903,-0.303955c-0.11631,-0.280807 0.360481,-0.210495 0.91185,-0.607895c0.348717,-0.251343 1.000885,-0.82283 1.215805,-0.60791c0.214928,0.214935 0,0.60791 0.303955,0.60791c0.303955,0 0.392975,0.214935 0.607903,0c0.214928,-0.214935 0.303947,-0.303955 0.911858,-0.303955c0.607903,0 0.91185,0 0.91185,0.303955c0,0.303955 0,0.607895 0,0.91185c0,0.303955 0.000008,0.60791 0.303955,1.215805c0.303955,0.60791 0.607903,1.215805 0.607903,1.51976c0,0.303955 -0.397408,0.968384 0,1.51976c0.251335,0.348709 0.563141,0.660507 0.91185,0.91185c0.551361,0.3974 1.215805,0.303955 1.51976,0.303955c0.303947,0 0.927444,0.096115 1.215805,0c1.441772,-0.480591 2.494469,-1.462814 3.039513,-2.12767c0.694794,-0.847519 1.021057,-1.839401 1.215805,-3.039505c0.153961,-0.948761 0.451744,-1.770142 0.607903,-2.43161c0.209503,-0.887451 0.240074,-1.847549 0.607903,-2.735565c0.520187,-1.255844 0.981689,-2.135788 0.91185,-2.43161c-0.156158,-0.661484 -0.164505,-0.818665 0,-1.215805c0.232635,-0.56163 0.214096,-0.91629 0.303955,-1.823715c0.152725,-1.542297 0.303955,-2.431602 0.303955,-2.735558c0,-0.303947 -0.13945,-0.514717 -0.303955,-0.91185c-0.116318,-0.280815 0.303955,-0.303955 0.303955,-0.607903c0,-0.303955 0,0 0,0.303947c0,0.303955 0.554535,0.029762 0.91185,0.607903c0.479385,0.775673 -0.09317,1.838409 -0.303955,3.34346c-0.306915,2.191422 -0.753952,3.65921 -0.607895,4.55928c0.153961,0.948761 0.533615,1.828262 0.607895,2.43161c0.153122,1.243835 0.149994,1.786789 0.303955,2.735565c0.146057,0.90007 0.147797,1.162231 0.303955,1.8237c0.139679,0.591644 0.156158,1.162231 0,1.823715c-0.139664,0.591629 -0.156158,1.162231 0,1.8237c0.069839,0.295822 -0.116318,0.631042 0,0.91185c0.164505,0.397141 -0.214935,0.214935 0,0c0.214935,-0.214935 0.356567,-0.259186 0.607895,-0.607895c0.3974,-0.551376 0.886795,-2.144882 1.51976,-3.03952c0.877762,-1.240646 2.10878,-2.445999 3.03952,-3.647415c1.191925,-1.538544 2.12764,-2.73555 2.73555,-3.647415c0.607895,-0.91185 1.178619,-1.843765 1.51976,-2.43161c0.550079,-0.947861 1.099487,-1.238937 1.215805,-1.51976c0.164505,-0.397125 0.259186,-0.964462 0.60791,-1.215805c0.551361,-0.397385 0.607895,-0.607895 0.91185,-1.215805c0,0 0.303955,-0.91185 0,-0.91185c-0.303955,0 0.048691,0.611832 0,0.91185c-0.153961,0.948776 -0.274597,2.436752 -0.60791,4.255325c-0.279404,1.52446 -0.30394,2.735565 -0.30394,3.647415c0,0.60791 -0.094452,1.240204 -0.303955,2.127655c-0.312317,1.322952 -0.60791,2.12767 -0.60791,3.03952c0,0.303955 -0.30394,0.607895 -0.30394,0.91185c0,0.303955 0.13945,0.51474 0.30394,0.91185c0.116318,0.280823 0,0.60791 0.303955,0.60791c0.303955,0 0.60791,-0.303955 0.91185,-0.303955c0.303955,0 1.239655,0.063873 2.12767,-0.303955c1.255844,-0.520187 1.576294,-1.122345 2.127655,-1.519745c1.046143,-0.754013 1.587463,-1.739822 2.735565,-2.735565c1.298935,-1.126556 1.935471,-2.299057 3.039505,-3.34346c0.796143,-0.753143 1.736816,-1.280151 2.43161,-2.12767c0.545044,-0.664841 1.373657,-1.081512 2.12767,-2.127655c0.3974,-0.551376 1.059647,-1.162231 1.215805,-1.823715c0.139664,-0.591629 0.607895,-0.91185 1.215805,-2.127655c0.303955,-0.607903 0.443405,-1.122627 0.607895,-1.519753c0.116318,-0.280815 -0.30394,-0.607903 -0.30394,-0.911858c0,-0.303947 -0.327087,-0.18763 -0.60791,-0.303947c-0.397141,-0.164497 -0.696915,-0.392975 -0.91185,-0.607903c-0.214935,-0.214928 -0.250381,-0.451752 -0.91185,-0.607903c-0.591644,-0.139671 -1.51976,0 -2.12767,0c-0.91185,0 -0.607895,0 -0.91185,0.303947c-0.303955,0.303955 -0.772461,0.213585 -1.215805,1.215805c-0.506989,1.146095 -1.207443,2.628418 -1.51976,3.95137c-0.349167,1.479111 0.075211,2.738678 0,3.647415c-0.152496,1.842575 -0.607895,2.735565 -0.607895,3.647415c0,0.91185 0.30394,1.51976 0.30394,2.127655c0,0.60791 -0.176651,1.647079 0.303955,2.12767c0.480591,0.480591 0.755707,0.554321 0.91185,1.215805c0.069824,0.295807 0.242249,0.685852 0.60791,0.91185c0.817627,0.505325 1.786789,0.757889 2.735565,0.91185c0.90007,0.146057 1.12262,0.443405 1.51976,0.60791c0.280807,0.116318 0.607895,0 1.8237,-0.303955c1.215805,-0.303955 3.053238,-0.561829 5.167175,-1.215805c1.836472,-0.568146 4.323029,-2.043762 5.47113,-3.03952c0.974197,-0.844925 1.796249,-1.613373 2.43161,-2.73555c0.617462,-1.090546 0.824951,-2.192017 1.519745,-3.03952c0.545044,-0.664841 1.01709,-1.430237 1.51976,-2.127655c0.3974,-0.551376 0.544037,-1.54361 0.91185,-2.43161c0.260086,-0.62793 0.164291,-0.928131 0.303955,-1.51976c0.156158,-0.661476 0.451752,-0.858284 0.60791,-1.51976c0.069839,-0.295815 0.44339,-1.12262 0.607895,-1.519753c0.116318,-0.280815 0.303955,-0.303955 0.303955,-0.607903c0,-0.303955 0.13945,-0.514725 0.303955,-0.911858c0.116318,-0.280807 0.420258,-0.280815 0.30394,0c-0.16449,0.397125 -0.607895,1.215805 -0.91185,2.43161c-0.303955,1.215805 -0.759125,2.713005 -0.91185,4.255318c-0.179703,1.814835 -0.38237,3.314407 -0.91185,4.86322c-0.71579,2.093842 -1.422348,3.517044 -2.12767,4.86322c-0.446091,0.851395 -0.164261,1.536026 -0.30394,2.12767c-0.156158,0.661469 -0.303955,0.91185 -0.303955,1.519745c0,0.60791 -0.303955,0.60791 -0.303955,0.911865c0,0.30394 -0.116318,0.584763 0,0.30394c0.164505,-0.397125 0.372101,-0.578354 0.60791,-1.215805c0.434799,-1.175385 0.91185,-2.43161 1.519745,-4.25531c0.303955,-0.91185 0.453949,-1.786804 0.60791,-2.735565c0.097382,-0.600052 0.08902,-1.304825 0.303955,-1.51976c0.21492,-0.21492 0.327072,0.187637 0.607895,0.303955c0.397141,0.164505 0.91185,0.303955 1.51976,0c0.607895,-0.303955 1.527603,-0.206589 2.127655,-0.303955c0.948761,-0.153961 1.145966,-0.616028 1.215805,-0.91185c0.156158,-0.661469 0.665741,-1.787704 1.215805,-2.735565c0.341141,-0.58783 0.847992,-1.239655 1.215805,-2.127655c0.260086,-0.62793 0.559219,-1.219727 0.60791,-1.51976c0.153961,-0.948761 0.696915,-1.000877 0.91185,-1.215805c0.21492,-0.21492 -0.303955,-0.303947 -0.303955,-0.607903c0,-0.303947 0,-0.607903 0.303955,-0.607903c0.303955,0 0,0 0,0.303955c0,0.303955 0.303955,0.303947 0.303955,0.607903c0,0.607903 -0.451752,1.162231 -0.60791,1.823708c-0.279343,1.183273 -0.15538,2.44072 -0.30394,3.647415c-0.153122,1.243835 -0.561478,2.444168 -0.911865,3.647415c-0.268723,0.922836 -0.453934,1.786804 -0.607895,2.735565c-0.194748,1.200104 -0.147797,1.770126 -0.303955,2.43161c-0.069839,0.295822 -0.053574,0.755692 0.60791,0.91185c0.295807,0.069824 0.624161,0.164276 1.215805,0.303955c0.661469,0.156158 1.171051,0.356567 1.519745,0.607895c0.551376,0.3974 1.53154,0.450012 2.43161,0.303955c0.948776,-0.153961 2.037292,-0.772446 3.03952,-1.215805c1.146088,-0.507004 1.843765,-0.570709 2.43161,-0.91185c0.947861,-0.550079 1.38031,-1.373474 2.735565,-2.43161c1.396957,-1.090714 2.735565,-2.127655 3.95137,-3.34346c0.91185,-0.911865 1.519745,-1.51976 2.127655,-2.431625c0.607895,-0.91185 1.215805,-1.215805 1.8237,-1.8237c0.60791,-0.60791 1.363602,-1.162231 1.51976,-1.823715c0.209503,-0.887459 0.147797,-1.162224 0.303955,-1.8237c0.069839,-0.295822 -0.303955,-0.607903 -0.303955,-0.303955c0,0.303955 -0.07132,0.350227 -0.303955,0.911858c-0.16449,0.397125 -0.665726,1.179787 -1.215805,2.127663c-0.682266,1.175674 -1.303513,2.087616 -1.8237,3.34346c-0.367828,0.888016 -0.496506,1.830551 -0.60791,2.735565c-0.153122,1.243835 -0.847977,1.847534 -1.215805,2.735565c-0.260086,0.627914 -0.747345,1.426559 -0.91185,1.8237c-0.348953,0.842438 -0.116318,1.238937 0,1.51976c0.164505,0.397141 0.268982,0.691269 0.91185,0.91185c1.465973,0.502991 2.747345,0.753967 3.647415,0.60791c0.948776,-0.153961 1.614044,-0.522507 2.43161,-1.51976c0.694794,-0.847519 1.566971,-2.089325 3.03952,-3.95137c0.942688,-1.192047 1.656052,-2.372543 2.127655,-3.647415c0.434799,-1.175385 0.60791,-2.127655 0.911865,-2.43161c0.30394,-0.303955 0.607895,-0.60791 0.607895,-0.91185c0,-0.303955 -0.303955,-0.303955 0,-0.303955c0.303955,0 0.303955,-0.303955 0.303955,-0.60791c0,-0.30394 0.214935,-0.518875 0,-0.30394c-0.214935,0.214935 -0.60791,0.30394 -0.60791,0.607895c0,0.303955 0.08902,0.392975 0.303955,0.60791c0.21492,0.21492 -0.381912,0.242249 -0.607895,0.607895c-0.50531,0.817627 -0.758743,1.49173 -0.911865,2.735565c-0.11142,0.905014 -0.443604,1.839981 -0.30394,2.43161c0.156143,0.661484 0.30394,0.91185 0.30394,1.215805c0,0.303955 -0.116318,0.934982 0,1.215805c0.164505,0.397141 0.60791,0.303955 1.215805,0.303955c0.303955,0 0.69693,0.08902 0.911865,0.303955c0.21492,0.21492 0.607895,0 0.91185,0c0.303955,0 0.624161,-0.164276 1.215805,-0.303955c0.661469,-0.156158 1.613983,-0.406525 2.43161,-0.91185c0.731308,-0.451981 1.156738,-1.048157 2.43161,-1.51976c1.175385,-0.434799 2.185486,-0.875839 2.735565,-1.823715c0.341141,-0.58783 1.12236,-1.272339 1.51976,-1.8237c0.50267,-0.697433 0.795532,-1.238937 0.91185,-1.51976c0.164505,-0.397141 0.347809,-0.587891 0.607895,-1.215805c0.367828,-0.888016 0.60791,-1.215805 0.911865,-1.823715c0.30394,-0.607895 0.607895,-0.911842 0.30394,-1.215797c-0.30394,-0.303947 -0.518875,-0.089027 -0.30394,-0.303955c0.21492,-0.21492 0.822815,-0.089027 0.607895,-0.303947c-0.214935,-0.214928 -0.696915,0.08902 -0.91185,0.303947c-0.644775,0.644783 0,1.823708 -0.303955,2.735558c-0.303955,0.911865 -0.607895,1.823715 -1.215805,3.03952c-0.607895,1.215805 -1.457123,3.066101 -2.127655,4.559265c-0.556854,1.240021 -1.051514,3.055786 -0.91185,3.647415c0.156143,0.661484 0.46843,0.818695 0.30394,1.215805c-0.116318,0.280807 -0.91185,0.303955 -0.607895,0.303955c0.303955,0 0.486572,-0.381699 0.91185,-0.91185c0.78418,-0.97757 1.115875,-2.496231 2.127655,-3.95137c1.111069,-1.597931 2.651672,-3.107208 3.647415,-4.25531c1.126556,-1.29895 2.331299,-1.852539 3.647415,-3.03952c1.128571,-1.017838 1.751083,-2.254074 2.735565,-2.735565c0.863449,-0.422302 1.543594,-0.544029 2.43161,-0.91185c0.62793,-0.260094 1.215805,-0.607903 1.823715,-0.911858c0.607895,-0.303947 0.91185,-0.303947 0.91185,0c0,0.607903 0.373795,0.616035 0.303955,0.911858c-0.156158,0.661476 -0.303955,1.8237 -0.60791,2.735565c-0.30394,0.91185 -0.969681,2.091644 -1.519745,3.039505c-0.341141,0.587845 -0.544052,1.543594 -0.911865,2.43161c-0.260086,0.62793 -0.375244,1.56604 -0.607895,2.12767c-0.164505,0.397125 -0.303955,0.91185 -0.91185,1.519745c-0.303955,0.303955 -0.491592,0.934998 -0.60791,1.215805c-0.164505,0.397141 -0.607895,0.303955 -0.607895,0.60791c0,0.303955 0.214935,0.696915 0,0.91185c-0.214935,0.214935 0,0.60791 0,0.303955c0,-0.303955 -0.51889,-0.392975 -0.303955,-0.60791c0.214935,-0.214935 0.51889,-0.39296 0.303955,-0.607895c-0.214935,-0.214935 -0.303955,0.303955 -0.303955,0c0,-0.303955 0.360489,-0.51445 0.91185,-0.91185c1.046143,-0.754013 2.127655,-1.823715 3.95137,-3.343475c1.8237,-1.519745 4.608261,-4.193405 5.77507,-5.167175c0.521805,-0.435486 0.911865,-0.607895 1.215805,-0.607895c0.303955,0 0.554337,0.147797 1.215805,0.303955c0.295822,0.069839 0.39299,0.08902 0.60791,0.30394c0.214935,0.214935 0.491577,0.631042 0.607895,0.911865c0.164505,0.397125 0.023132,0.491577 0.303955,0.607895c0.397141,0.164505 0.502975,1.269592 0,2.735565c-0.441147,1.285736 -0.887222,2.160172 -0.607895,3.34346c0.156143,0.661484 0.795532,1.238937 0.91185,1.51976c0.164505,0.397141 0.607895,0.91185 1.215805,1.215805c0.607895,0.303955 1.871384,0.480148 3.647415,1.215805c1.255844,0.520187 2.179825,0.96022 3.34346,0.60791c1.048889,-0.317581 2.784546,-1.138733 4.25531,-2.12767c1.261169,-0.848007 2.074097,-1.667542 2.735565,-1.8237c0.295837,-0.069839 0.60791,-0.303955 0.60791,-0.60791l-0.303955,0l-0.60791,-0.607895" id="svg_20" fill-opacity="null" stroke-opacity="null" stroke-width="1.5" stroke="#000" fill="none"/>
  <path d="m276.291779,140.258362c4.25531,-3.34346 5.230042,-4.198364 5.775085,-4.86322c0.694794,-0.847504 1.21579,-2.12764 2.43161,-3.34346c0.911835,-0.91185 1.519745,-1.823715 2.43161,-2.735565c0.60791,-0.60791 0.854889,-1.278671 1.519745,-1.823708c0.847534,-0.694794 1.122375,-1.272331 1.519775,-1.823708c0.251312,-0.348709 0.60788,-0.607903 0.911835,-1.215805c0.303955,-0.607903 0.81842,-0.968391 1.21582,-1.51976c0.502655,-0.697418 0.824951,-1.280144 1.519745,-2.127655c0.272522,-0.332428 0.303955,-0.911858 0.303955,-1.215813c0,-0.303947 0.139465,-0.514717 0.303955,-0.91185c0.116333,-0.280815 0.303955,-0.911858 0.303955,-1.823708c0,-0.607903 0.453918,-1.178902 0.60788,-2.127663c0.146057,-0.900078 0.303955,-1.519753 0.303955,-2.127655c0,-0.911858 -0.303955,-1.215805 -0.303955,-1.823708c0,-0.607903 0,-0.911858 0,-1.215805c0,-0.303955 -0.303925,-0.607903 -0.303925,-1.215805c0,-0.303955 -0.303955,-1.215813 -0.60791,-1.215813c-0.303955,0 -0.392975,0.089027 -0.60791,0.303955c-0.214935,0.214928 -0.514465,0.056534 -0.911865,0.607903c-0.753998,1.046135 -2.065308,2.49855 -3.03949,3.343468c-1.148102,0.995758 -1.950134,1.751091 -2.43161,2.735558c-0.422302,0.863449 -1.38269,2.008041 -2.43161,3.647415c-0.732605,1.144997 -1.153748,2.459305 -2.127686,4.559273c-0.57193,1.233131 -0.765778,2.139435 -0.911835,3.039513c-0.153961,0.948769 -0.726166,1.835098 -0.911865,3.34346c-0.153137,1.243835 -0.459381,2.44072 -0.60791,3.647415c-0.153107,1.243851 -0.758698,2.707535 -0.911835,3.95137c-0.11142,0.905029 -0.372101,1.77681 -0.303955,2.735565c0.048187,0.677948 0.303955,1.215805 0.303955,1.51976c0,1.215805 0,2.127655 0,2.43161c0,0.607895 0.139465,0.818665 0.303955,1.215805c0.232635,0.561615 0,0.911835 0.303955,1.215805c0.303925,0.303955 0.60788,0.91185 1.21579,1.215805c0.60791,0.303955 0.934998,0.187622 1.21582,0.303955c0.397125,0.164505 0.60788,0.303955 0.911835,0.303955c0.303955,0 1.220245,0.089844 2.127655,0c1.542328,-0.152725 2.285767,-1.010239 2.735565,-1.51976c0.725281,-0.821594 1.981567,-1.081528 2.735565,-2.12767c0.7948,-1.102737 1.432861,-2.192001 2.127655,-3.039505c0.545044,-0.664856 0.843018,-1.399414 0.911865,-1.823715c0.108856,-0.670868 -0.911865,-1.215805 -0.911865,-1.519745c0,-0.303955 0.146057,-0.923645 0,-1.823715c-0.153961,-0.948761 -0.514709,-1.0513 -0.911835,-1.215805c-0.561646,-0.232635 -1.519775,0.1259 -1.519775,-0.303955c0,-0.42984 0.303955,-0.607895 0,-0.607895c-0.303955,0 0,0.60791 0,0.303955c0,-0.303955 -0.392975,0.08902 -0.60788,0.30394c-0.214935,0.214935 -0.616028,-0.069839 -0.911865,0c-0.661469,0.156158 -0.911865,0.60791 -1.21582,0.60791c-0.303925,0 -0.303925,0.60791 -0.303925,0.303955c0,-0.303955 -0.822815,0.21492 -0.60791,0c0.214935,-0.214935 0.60791,0 0.911835,0c0.303955,0 0.392975,-0.214935 0.60791,0c0.214935,0.214935 0.69693,0.089005 0.911865,0.30394c0.214935,0.214935 0.303955,-0.303955 0,0c-0.303955,0.303955 0.60791,0.303955 0.911835,0.303955c0.303955,0 0,0 0.303955,0c0.303955,0 0.392975,0.08902 0.60791,0.303955c0.214935,0.214935 0.60791,0 0.911865,0c0.303955,0 0.303955,-0.303955 0.60788,-0.303955c0.303955,0 0.60791,0 1.21582,0c0.60791,0 0.303955,0 0,0l-0.303955,0l-0.60791,0l-1.21579,0" id="svg_23" fill-opacity="null" stroke-opacity="null" stroke-width="1.5" stroke="#000" fill="none"/>
  <path d="m312.462006,129.924011c-3.343475,-2.735558 -4.088318,-2.902596 -4.863251,-2.127655c-0.774902,0.774918 -1.280151,1.432846 -2.127655,2.127655c-0.664825,0.545044 -1.21579,1.519745 -2.127655,2.43161c-0.911835,0.91185 -1.614044,1.738297 -2.43161,2.735565c-0.694794,0.847519 -1.128906,1.888046 -1.8237,2.735565c-0.272522,0.332428 -0.639343,0.883377 -0.911865,1.215805c-0.694794,0.847519 -0.747345,1.42659 -0.911835,1.823715c-0.232605,0.56163 -0.451752,0.858276 -0.60791,1.519745c-0.069824,0.295822 0,0.60791 0.303955,0.911865c0.303955,0.30394 0.60788,0.607895 1.21579,0.607895c0.303955,0 1.285522,-0.100906 2.43161,-0.607895c1.002228,-0.443359 2.264587,-1.048782 3.03952,-1.823715c1.549866,-1.54985 2.354523,-3.392456 3.343475,-4.86322c0.847992,-1.261154 1.432861,-2.495941 2.127655,-3.34346c0.545044,-0.664856 0.60791,-1.215805 1.21579,-1.823715c0.303955,-0.303955 1.020721,-0.544922 0.911865,-1.215805c-0.068848,-0.424301 -0.16449,-0.514709 0,-0.91185c0.116333,-0.280823 0.234131,-0.312088 0.303955,-0.60791c0.156158,-0.661469 0.44342,-1.005028 0.60791,-0.607895c0.116333,0.280823 -0.356567,0.259186 -0.60791,0.607895c-0.3974,0.551361 -0.461853,1.227585 -0.60791,2.12767c-0.153961,0.948761 -1.063293,1.80484 -1.21579,3.647415c-0.100281,1.21167 -0.303955,2.127655 -0.60791,3.039505c-0.303955,0.911865 -0.716766,1.760742 -0.60791,2.43161c0.068848,0.424301 0.755707,0.554337 0.911865,1.215805c0.069824,0.295822 0.747345,0.514725 0.911835,0.911865c0.116302,0.280807 0.210785,0.44339 0.60791,0.607895c0.280823,0.116318 0.616028,0.069839 0.911865,0c0.661469,-0.156158 1.426575,-0.443405 1.8237,-0.607895c0.280823,-0.116318 0.60791,0 1.21582,-0.303955c0.60788,-0.303955 1.560181,-0.781006 2.735535,-1.215805c1.274902,-0.471619 1.126801,-0.696915 0.911865,-0.91185c-0.214935,-0.214935 -0.09317,-0.13945 0.303955,-0.303955c0.561646,-0.232635 0.747375,-0.21077 0.911865,-0.60791c0.116302,-0.280807 0.088989,-0.39296 0.303925,-0.607895c0.214935,-0.214935 0,0.303955 -0.303925,0.303955l-0.303955,0l-0.911865,-0.303955" id="svg_24" fill-opacity="null" stroke-opacity="null" stroke-width="1.5" stroke="#000" fill="none"/>
  <path d="m336.778107,129.316116c-2.735565,-1.823708 -3.351593,-1.893539 -3.64743,-1.823708c-0.661469,0.156151 -1.478943,-0.127586 -2.43161,0c-1.086212,0.14547 -1.587463,0.82795 -2.735565,1.823708c-0.649445,0.563263 -1.519745,1.51976 -2.43161,2.127655c-1.8237,1.21579 -2.848419,2.050705 -3.6474,3.343475c-0.71463,1.156311 -1.256744,2.374298 -2.127655,3.039505c-0.763855,0.583435 -1.730286,1.272339 -2.127686,1.823715c-0.502655,0.697418 -0.375244,1.262085 -0.60788,1.8237c-0.16449,0.397141 -0.60791,0.60791 -0.60791,0.91185c0,0.60791 -0.234131,1.223938 -0.303955,1.51976c-0.156158,0.661484 0.012573,0.865402 1.21582,1.215805c0.922821,0.268738 1.786774,1.061844 2.735535,1.215805c0.600067,0.097382 1.519775,0.303955 2.43161,0.303955c0.911865,0 1.795715,-0.150833 3.03952,-0.303955c0.905029,-0.11142 1.864166,-0.173111 3.03952,-0.607895c1.274902,-0.471603 2.43161,-1.215805 3.343475,-1.823715c0.911835,-0.607895 1.880249,-0.818405 2.43161,-1.215805c0.348724,-0.251343 0.303955,-0.607895 0.60788,-0.607895c0.303955,0 0.303955,-0.303955 0.303955,-0.60791l-0.303955,0l-1.8237,-0.303955" id="svg_25" fill-opacity="null" stroke-opacity="null" stroke-width="1.5" stroke="#000" fill="none"/>
  <path d="m346.808502,105.911858c-2.127655,2.127663 -2.34259,2.520645 -2.127655,2.735565c0.214905,0.214905 0.303925,-0.303947 0.60788,-0.303947c0.303955,0 0.491577,-0.631042 0.60791,-0.911858c0.16449,-0.397133 0.214935,-0.82283 0,-0.607903c-0.214935,0.21492 0.08902,0.392975 0.303955,0.607903c0.214935,0.214928 0.664429,0.093437 1.21579,-0.303955c0.348724,-0.251343 0.023132,-0.18763 0.303955,-0.303947c0.397125,-0.164497 0.555298,-0.044762 0.303955,0.303947c-0.3974,0.551369 0.03717,1.23587 -0.303955,1.823715c-0.550049,0.947853 -1.053345,2.382393 -1.519745,3.951363c-0.44162,1.485603 -0.67923,2.781837 -0.911865,3.343468c-0.328979,0.79425 -1.0513,0.818672 -1.21579,1.215805c-0.116302,0.280807 0.116302,0.631042 0,0.91185c-0.16449,0.397133 -0.360504,0.514458 -0.911865,0.911858c-0.348724,0.251335 -0.303955,0.607903 -0.60791,0.607903l-0.303925,-0.911858" id="svg_26" fill-opacity="null" stroke-opacity="null" stroke-width="1.5" stroke="#000" fill="none"/>
  <path d="m356.534943,107.735573c-0.60791,1.823708 -1.009247,2.439461 -0.911865,3.039513c0.153961,0.948761 0.491577,1.542892 0.60791,1.823708c0.16449,0.397133 0.968384,0.397392 1.519745,0c0.697418,-0.502686 1.051331,-1.122627 1.21582,-1.51976c0.232635,-0.56163 0.09317,-1.355255 -0.303955,-1.519753c-0.561646,-0.232635 -0.911865,-0.303955 -1.21582,-0.303955c-0.303925,0 -0.350189,0.07132 -0.911835,0.303955c-0.397125,0.164497 -0.51889,0.69693 -0.303955,0.91185c0.214935,0.214928 0.563141,-0.052605 0.911865,-0.303947c0.551361,-0.397392 0.60788,-0.911858 0.60788,-1.823708c0,-0.303955 0,0 0,0.303947c0,0.303955 0,0.607903 0,1.215805c0,0.607903 -0.035217,1.508766 -0.303955,2.43161c-0.350372,1.203239 -0.406525,2.221893 -0.911835,3.039513c-0.677979,1.09697 -1.542999,1.19873 -2.43161,2.43161c-0.562012,0.779755 -0.911865,1.215805 -1.21582,1.51976c-0.303955,0.303947 -0.60788,0.607903 -0.303955,0.607903l0.303955,-0.303955l-0.303955,0.303955" id="svg_27" fill-opacity="null" stroke-opacity="null" stroke-width="1.5" stroke="#000" fill="none"/>
  <path d="m371.124603,143.905777c-3.343475,0 -3.6474,0.91185 -3.951355,1.51976c-0.303925,0.607895 -0.51889,1.00087 -0.303955,1.215805c0.214935,0.214935 0.577942,0.440704 1.8237,0.303955c0.675598,-0.074158 1.059662,-0.554352 1.21579,-1.215805c0.139648,-0.591644 -0.451721,-0.858292 -0.60788,-1.51976c-0.069824,-0.295822 -0.51474,-1.0513 -0.911865,-1.215805c-0.280823,-0.116318 -0.78595,-0.733795 -1.21579,-0.303955c-0.214935,0.214935 -0.685883,0.546204 -0.911865,0.91185c-0.505341,0.817627 -0.536591,1.56604 -0.303955,2.12767c0.16449,0.397125 0.60791,0.30394 0.911865,0.30394c0.303955,0 0.747345,0.093185 0.911835,-0.30394c0.116333,-0.280823 0.303955,-0.303955 0.303955,-0.60791l-0.303955,0l0,-0.607895" id="svg_28" fill-opacity="null" stroke-opacity="null" stroke-width="1.5" stroke="#000" fill="none"/>
  <path d="m281.154999,253.328262c2.127655,-3.647415 2.254059,-4.486649 2.735565,-5.471115c0.422302,-0.863449 0.453949,-1.786804 0.60791,-2.735565c0.097382,-0.600067 0.468262,-1.536026 0.60791,-2.127655c0.156128,-0.661469 0.757874,-1.178894 0.911835,-2.12767c0.048676,-0.300018 -0.069824,-0.919983 0,-1.215805c0.156158,-0.661469 0.356567,-0.867081 0.60791,-1.215805c0.3974,-0.551361 0.303955,-0.91185 0.303955,-1.215805c0,-0.303955 -0.116333,-0.327072 0,-0.607895c0.16449,-0.397141 -0.210785,-1.07637 -0.60791,-0.911865c-0.280823,0.116318 -0.08902,0.392975 -0.303955,0.60791c-0.214935,0.214935 -0.60791,0 -1.8237,0c-1.21582,0 -2.127655,0 -3.03952,0c-0.911835,0 -1.447998,0 -2.127655,0c-0.679657,0 -1.795685,0.454773 -3.03952,0.607895c-0.603363,0.07428 -0.936218,-0.209503 -1.8237,0c-0.661469,0.156158 -1.21582,0.303955 -1.8237,0.303955c-0.911865,0 -1.519775,0 -1.82373,0c-0.911835,0 -1.232056,0.139664 -1.8237,0c-0.661469,-0.156158 -1.519745,-0.303955 -2.43161,-0.303955c-0.60791,0 -0.911835,0 -1.519745,0c-0.303955,0 -0.60791,-0.30394 -0.911865,-0.30394c-0.303955,0 -0.60791,0 -0.911865,0c-0.60788,0 -0.858276,-0.451752 -1.519745,-0.60791c-0.887482,-0.209503 -1.21579,0 -1.8237,0c-0.60791,0 -1.21582,0 -1.519775,0c-0.303925,0 -0.60788,0 -0.911835,0c-0.303955,0 -0.60791,0 -0.911865,0c-0.30394,0 -0.607895,0 -0.91185,0c-0.303955,0 -0.514709,0.13945 -0.91185,0.303955c-0.280823,0.116318 -0.60791,0.303955 -0.91185,0.303955c-0.303955,0 -0.303955,0.30394 -0.60791,0.30394c0,0 -0.34935,-0.15979 -0.607895,0c-0.578156,0.357315 -0.08902,1.000885 -0.303955,1.21582c-0.214935,0.214935 -0.420273,0.327072 -0.303955,0.607895c0.164505,0.397141 0.60791,0.60791 0.60791,0.91185c0,0.303955 0.089005,0.392975 0.30394,0.60791c0.214935,0.214935 0.392975,0.08902 0.60791,0.303955c0.21492,0.21492 0.08902,0.39296 0.303955,0.607895c0.214935,0.214935 0.13945,0.51474 0.30394,0.91185c0.116318,0.280823 0.089035,1.000885 0.303955,1.215805c0.214935,0.214935 0,0.60791 0.303955,0.60791c0.303955,0 0.303955,-0.303955 0.303955,-0.60791c0,-0.30394 0.347794,-0.587875 0.607895,-1.215805c0.367828,-0.888016 0.60791,-1.8237 0.91185,-2.73555c0.303955,-0.911865 0.757904,-2.090759 0.911865,-3.03952c0.146057,-0.90007 0.454773,-1.795685 0.60791,-3.03952c0.14856,-1.206696 0.651733,-2.107635 0.911835,-2.73555c0.367828,-0.888016 0.50885,-1.716446 0.911865,-2.735565c0.679901,-1.719315 0.594269,-2.902496 0.911835,-3.95137c0.176147,-0.581833 0.594269,-1.078766 0.911865,-2.127655c0.264252,-0.872742 0.366821,-1.462814 0.911865,-2.12767c0.694794,-0.847504 1.646149,-1.751083 2.127655,-2.73555c0.422302,-0.863449 0.976196,-1.736832 1.8237,-2.43161c0.997284,-0.817581 1.868317,-1.478195 2.43161,-2.12767c0.995758,-1.148102 1.432861,-1.888046 2.127655,-2.735565c0.817566,-0.997284 2.361542,-1.63858 3.03952,-2.73555c0.505341,-0.817642 0.88678,-1.840942 1.519745,-2.735565c0.877777,-1.240646 1.31842,-2.221878 1.82373,-3.03952c0.451965,-0.731293 1.268402,-1.171036 1.519745,-1.519745c0.3974,-0.551361 0.664459,-0.818405 1.21582,-1.21582c1.046112,-0.754013 1.039154,-1.343124 1.519745,-1.8237c0.480591,-0.480591 0.69693,-0.392975 0.911865,-0.60791c0.214935,-0.214935 0.60788,0 0.911835,0c0.303955,0 0.08902,0.392975 0.303955,0.60791c0.214935,0.214935 0.187653,0.327087 0.303955,0.607895c0.16449,0.397141 0.373779,0.616043 0.303955,0.911865c-0.156158,0.661469 -0.45816,2.135056 -0.60791,3.647415c-0.15271,1.542313 -0.47525,2.742828 -0.60791,3.95137c-0.305756,2.785538 -0.887115,4.562943 -1.21579,6.68692c-0.282745,1.827118 -0.60791,3.03952 -0.60791,3.95137c0,0.91185 -0.149994,2.090744 -0.303955,3.03952c-0.097382,0.600052 -0.094452,1.544128 -0.303955,2.43161c-0.156128,0.661453 -0.303925,0.91185 -0.303925,1.215805c0,0.30394 0,0.607895 0,0.91185c0,0.303955 0,0.60791 0,0.91185c0,0.60791 0,1.51976 0,1.823715c0,0.303955 0,0.607895 0,0.91185c0,0.303955 0.303955,0.303955 0,0.303955c-0.303955,0 0,0.607895 0,0.91185c0,0.303955 0.51886,0.51889 0.303925,0.303955c-0.214905,-0.214905 -0.255249,0.307877 -0.303925,0.607895c-0.153961,0.948776 -0.303955,1.215805 -0.303955,1.51976c0,0.303955 0.214905,0.69693 0,0.91185c-0.214935,0.214935 -0.303955,0.303955 -0.303955,0.60791c0,0.303955 0.214935,0.696915 0,0.91185c-0.214935,0.214935 0.214935,0.08902 0,0.303955c-0.214935,0.214935 -0.303955,0.303955 -0.303955,0l-0.303955,-0.303955l0.303955,-0.607895" id="svg_30" fill-opacity="null" stroke-opacity="null" stroke-width="1.5" stroke="#000" fill="none"/>
  <path d="m290.881439,228.100311c1.82373,-2.735565 2.367737,-3.671265 2.735565,-4.55928c0.260101,-0.627914 0.651764,-1.195786 0.911865,-1.8237c0.367828,-0.888016 0.62796,-1.48259 1.21579,-1.823715c0.947876,-0.550079 1.051331,-1.12262 1.21582,-1.51976c0.232635,-0.561615 0.187622,-0.934982 0.303955,-1.215805c0.16449,-0.397125 0.60788,-0.30394 0.911835,-0.30394c0.303955,0 0.60791,-0.303955 0.303955,-0.303955c-0.303955,0 -0.023132,0.187637 -0.303955,0.303955c-0.397125,0.16449 -0.303955,0.607895 -0.303955,1.215805c0,0.91185 -0.109161,2.143356 -0.303925,3.34346c-0.307922,1.897522 -0.561462,3.052078 -0.911865,4.255325c-0.268738,0.922836 -0.156158,2.074081 0,2.73555c0.139679,0.591644 0.139679,1.536026 0,2.12767c-0.156158,0.661469 -0.156158,0.858276 0,1.519745c0.069824,0.295822 0,0.911865 0,1.215805c0,0.60791 0.08902,0.69693 0.303955,0.911865c0.214935,0.214935 1.21579,0.30394 1.519745,0.30394c0.303955,0 0.919983,0.069839 1.21582,0c0.661438,-0.156143 1.162231,-1.059647 1.8237,-1.215805c0.295837,-0.069839 0.579437,-0.335373 0.911865,-0.607895c0.847504,-0.694794 1.71698,-1.579254 2.43161,-2.735565c0.798981,-1.29277 1.646149,-2.358994 2.127655,-3.34346c0.422302,-0.863434 1.190735,-1.941299 1.519745,-2.735565c0.232635,-0.56163 0.713135,-1.734192 1.21582,-2.43161c0.3974,-0.551376 0.07132,-1.26207 0.303955,-1.823715c0.16449,-0.39711 0.696899,-0.696915 0.911835,-0.91185c0.214935,-0.214935 -0.303955,-0.303955 -0.303955,0c0,0.303955 -0.303955,1.215805 -0.303955,1.51976c0,0.303955 0.139648,0.928116 0,1.51976c-0.156128,0.661453 -0.339142,1.204819 -0.60788,2.127655c-0.350403,1.203247 0.147797,1.770142 0.303955,2.43161c0.139679,0.591644 0,1.215805 0,1.51976c0,0.607895 0,0.91185 0,1.215805c0,0.303955 0.210754,0.747345 0.60788,0.91185c0.280823,0.116318 0.60791,0.60791 0.911865,0.91185c0.303955,0.303955 0.327087,0.420273 0.60791,0.303955c0.397125,-0.164505 0.858276,0.156158 1.519745,0c0.295837,-0.069839 0.563141,-0.052612 0.911865,-0.303955c0.551331,-0.397385 1.449677,-1.030701 2.127655,-2.127655c0.505341,-0.817627 1.328674,-1.746719 2.127655,-3.039505c1.07196,-1.734451 1.563599,-2.411606 1.8237,-3.03952c0.367828,-0.888 0.81842,-1.576294 1.21582,-2.127655c0.502686,-0.697433 0.964447,-0.867096 1.21579,-1.215805c0.3974,-0.551361 0.60791,-0.911865 0.911865,-1.215805c0.303955,-0.303955 0.60791,-0.60791 0.911865,-0.911865c0.303925,-0.30394 0.088989,-0.696915 0.303925,-0.91185c0.214935,-0.214935 0.60791,0 0.911865,0c0.303955,0 1.000885,-0.51889 1.21582,-0.303955c0.214935,0.214935 0,0.60791 0,0.911865c0,0.30394 0.449982,0.92363 0.303925,1.8237c-0.153961,0.948761 -0.658936,2.103439 -1.21579,3.34346c-0.670532,1.493179 -0.757904,3.002609 -0.911865,3.95137c-0.146057,0.900085 -0.000031,1.51976 -0.303955,2.43161c-0.303955,0.911865 -0.60788,1.823715 -0.60788,3.03952c0,0.303955 0.116333,0.631027 0,0.91185c-0.16449,0.397141 -0.60791,0.60791 -0.60791,0.91185c0,0.303955 -0.214935,0.51889 0,0.303955c0.214935,-0.214935 0.44342,-0.514709 0.60791,-0.91185c0.232635,-0.56163 0.60788,-1.215805 1.21579,-2.43161c0.60791,-1.215805 1.117035,-3.227982 2.127655,-4.86322c0.677948,-1.09697 2.994171,-2.495453 4.255341,-3.343475c1.470764,-0.988937 2.038147,-1.624969 2.735565,-2.127655c0.551361,-0.3974 1.232056,-0.468231 1.8237,-0.607895c0.661469,-0.156158 1.089874,-0.303955 1.519745,-0.303955c0.429871,0 0.60791,0.607895 0.60791,0.91185c0,0.60791 -0.451752,0.858276 -0.60791,1.51976c-0.139679,0.591629 -0.156158,1.466187 0,2.127655c0.209503,0.887466 0.139679,1.839981 0,2.43161c-0.156158,0.661484 0.147797,1.162231 0.303955,1.823715c0.069824,0.295822 0.44342,0.818665 0.60791,1.215805c0.232635,0.561615 0.303955,0.911835 0.60791,1.215805c0.303925,0.303955 0.631012,0.491577 0.911835,0.607895c0.397125,0.164505 0.51474,0.443405 0.911865,0.60791c0.280823,0.116318 0.631042,-0.116302 0.911835,0c0.397125,0.164505 1.21582,0.303955 1.519775,0.303955c0.303955,0 0.911865,-0.30397 1.519745,-0.911865c0.60791,-0.60791 1.000885,-0.696915 1.21582,-0.91185c0.214935,-0.214935 0.08905,-0.392975 0.303955,-0.607895c0.214935,-0.214935 1.076324,0.397125 0.911835,0c-0.116302,-0.280823 -0.303955,-0.303955 -0.60788,0l0,-0.303955l-0.303955,0l-0.911865,0" id="svg_31" fill-opacity="null" stroke-opacity="null" stroke-width="1.5" stroke="#000" fill="none"/>
  <path d="m364.741638,222.021271c1.519745,-2.43161 1.21579,-2.73555 1.21579,-3.039505c0,-0.60791 -0.375275,-0.95813 -0.60791,-1.51976c-0.16449,-0.397141 -0.968384,-0.210495 -1.519745,-0.607895c-0.348724,-0.251343 -0.654205,-0.071304 -1.21582,-0.303955c-0.397125,-0.164505 -0.514709,-0.74736 -0.911835,-0.91185c-0.280823,-0.116318 -0.393005,0.08902 -0.60791,0.30394c-0.214935,0.214935 -1.343109,0.127319 -1.8237,0.60791c-0.480591,0.480576 -0.735229,0.735214 -1.21582,1.215805c-0.480591,0.480576 -1.017059,0.822327 -1.519745,1.51976c-0.3974,0.551361 -0.911896,1.21579 -1.519775,1.8237c-0.303925,0.30394 -1.059631,0.858276 -1.21579,1.51976c-0.139679,0.591629 -0.240082,0.935699 -0.60791,1.823715c-0.260101,0.627914 -0.660522,1.171051 -0.911835,1.519745c-0.3974,0.551376 -0.164276,0.928131 -0.303955,1.51976c-0.156158,0.661484 -0.451752,1.162231 -0.60791,1.823715c-0.069824,0.295807 0.139679,1.232071 0,1.8237c-0.156158,0.661484 -0.303955,0.91185 0,1.215805c0.303955,0.303955 0.60791,0.60791 0.911865,0.60791c0.60788,0 0.911835,0.30394 1.21579,0.30394c0.303955,0 0.60791,0 0.911865,-0.30394c0.303955,-0.303955 0.60788,-0.60791 1.21579,-0.911865c0.60791,-0.30394 1.278687,-0.854904 1.82373,-1.519745c0.694794,-0.847519 1.519745,-2.127655 2.43161,-3.03952c0.911835,-0.91185 1.303497,-2.087616 1.8237,-3.34346c0.367828,-0.888016 0.462036,-1.618149 0.911835,-2.12767c0.725281,-0.821594 1.95105,-1.343124 2.43161,-1.8237c0.480591,-0.480606 1.099487,-0.934982 1.21582,-1.215805c0.16449,-0.397141 0.822815,-0.69693 0.60791,-0.91185c-0.214935,-0.214935 0.303955,-0.911865 0,-0.911865c-0.303955,0 -0.303955,0.607895 -1.519775,1.823715c-0.911835,0.91185 -1.332855,1.936768 -2.127655,3.039505c-0.502686,0.697433 -0.757874,1.178894 -0.911835,2.12767c-0.146057,0.900085 -0.401337,1.831543 -0.303955,2.43161c0.153961,0.948761 -0.303955,1.8237 -0.303955,2.43161c0,0.607895 0.303955,0.91185 0.303955,1.51976c0,0.30394 0.44339,0.81868 0.60788,1.215805c0.116302,0.280807 0.616028,0.538055 0.911865,0.607895c0.661469,0.156158 1.21582,0.60791 1.519745,0.60791c0.60791,0 1.21582,0 1.82373,0c0.911835,0 1.893097,-0.348938 2.735565,0c0.397125,0.16449 0.968384,0.093445 1.519745,-0.303955c0.697449,-0.502686 1.584076,-1.128922 2.43161,-1.823715c0.332428,-0.272507 0.670776,-0.854904 1.21582,-1.519745c0.694794,-0.847519 1.342194,-1.751099 1.8237,-2.735565c0.422302,-0.863434 1.017059,-1.430237 1.519745,-2.127655c0.3974,-0.551376 0.713135,-1.126297 1.21582,-1.823715c0.3974,-0.551376 0.911835,-1.51976 0.911835,-2.127655c0,-0.303955 0.60791,-0.911865 0.911865,-1.215805c0.303955,-0.303955 0.44342,-0.514725 0.60791,-0.911865c0.116302,-0.280807 0,-0.607895 -0.303955,-0.607895c-0.303955,0 -0.139465,0.514709 -0.303955,0.91185c-0.116333,0.280823 -0.277313,1.225128 -0.60791,2.127655c-0.563019,1.536957 -1.266846,2.711349 -1.8237,3.95137c-0.670532,1.493179 -1.038269,2.358994 -1.519745,3.343475c-0.422272,0.863449 -0.643127,2.116669 -0.911865,3.039505c-0.350403,1.203247 -0.510529,1.831558 -0.60791,2.43161c-0.153961,0.948761 -0.747345,1.42659 -0.911835,1.823715c-0.232605,0.56163 -0.60791,1.215805 -0.303955,1.215805c0.303955,0 -0.088074,-0.620956 0,-0.911865c0.317566,-1.048874 1.21579,-1.823685 2.127655,-2.73555c0.911835,-0.91185 1.519745,-1.823715 2.127655,-2.735565c0.60791,-0.91185 1.577576,-2.091644 2.127655,-3.03952c0.682281,-1.17569 1.31012,-2.042252 2.127655,-3.039505c0.694794,-0.847534 1.519775,-1.823715 2.127655,-2.43161c0.911865,-0.911865 1.798889,-1.553848 3.03952,-2.43161c0.894653,-0.63298 1.12265,-1.051315 1.519775,-1.215805c0.280792,-0.116302 0.795502,-0.327087 0.911835,-0.60791c0.16449,-0.397141 0.755707,-0.554321 0.911865,-1.215805c0.069824,-0.295822 0,-0.607895 0,-0.91185c0,-0.303955 0.210785,-0.443405 0.60791,-0.60791c0.280792,-0.116302 -0.000031,0 0.303925,0c0.303955,0 0,0 -0.303925,0l-0.60791,-0.30394" id="svg_32" fill-opacity="null" stroke-opacity="null" stroke-width="1.5" stroke="#000" fill="none"/>
  <path d="m382.370819,223.844986c4.25531,0.60791 4.637238,1.154099 4.86322,1.51976c0.50531,0.817627 0.66571,1.787689 1.21579,2.735565c0.341125,0.58783 0.698181,1.706329 1.519745,2.43161c0.509521,0.449799 1.039185,0.735214 1.519775,1.215805c0.480591,0.480576 0.554321,1.059647 1.21579,1.215805c0.295837,0.069839 0.874939,-0.149994 1.82373,-0.303955c1.500122,-0.243439 2.461365,-0.250595 3.03949,-0.60791c1.292786,-0.798996 2.184204,-1.4263 2.735565,-1.8237c0.697418,-0.502686 1.21582,-0.91185 1.519775,-1.215805l0,-0.303955l-0.303955,0l-1.8237,-0.303955" id="svg_33" fill-opacity="null" stroke-opacity="null" stroke-width="1.5" stroke="#000" fill="none"/>
  <path d="m421.276581,196.489365c0.303955,1.8237 -0.043854,2.411591 -0.303955,3.03952c-0.367828,0.888016 -0.758728,1.79567 -0.911865,3.039505c-0.07428,0.603348 -0.077972,1.154099 -0.303955,1.51976c-0.50531,0.817627 -0.164246,1.536026 -0.303925,2.127655c-0.156158,0.661484 -0.303955,0.91185 -0.303955,1.215805c0,0.303955 -0.139465,0.514725 -0.303955,0.91185c-0.116333,0.280823 -0.303955,1.215805 -0.303955,2.12767c0,0.607895 0,0.91185 0,1.215805c0,0.303955 -0.234131,0.919983 -0.303955,1.215805c-0.156158,0.661469 -0.303955,0.91185 -0.303955,1.51976c0,0.30394 0.303955,0.30394 0.303955,0.607895c0,0.303955 0.303955,0.60791 0.303955,0.91185c0,0.303955 0.08902,0.392975 0.303955,0.60791c0.214935,0.214935 0.210785,0.443405 0.60791,0.607895c0.280792,0.116302 0.088989,0.392975 0.303925,0.60791c0.214935,0.214935 0.392975,0.08902 0.60791,0.303955c0.214935,0.214935 0.312073,0.2341 0.60791,0.30394c0.661469,0.156158 0.928131,0.443619 1.519745,0.303955c0.661469,-0.156158 1.566071,-0.375244 2.127686,-0.607895c0.397125,-0.164505 0.514709,-0.443405 0.911835,-0.60791c0.561646,-0.232635 0.911865,-0.303955 1.21582,-0.303955c0.303955,0 0.233856,-0.396103 0.60788,-0.607895c1.090546,-0.617493 1.542908,-0.187637 1.82373,-0.303955c0.397125,-0.164505 0.514709,-0.443405 0.911835,-0.607895c0.280823,-0.116318 0.60791,0 0.911865,0c0.303955,0 0.554321,-0.147797 1.21579,-0.303955c0.591644,-0.139679 1.21582,0 1.82373,0c0.303955,0 0.514709,-0.13945 0.911835,-0.303955c0.280823,-0.116333 0.69693,-0.214935 0.911865,0c0.214935,0.214935 0.303955,0.303955 0.60791,0.303955c0.303955,0 0.303955,-0.303955 0.60791,-0.303955l-0.303955,0l-0.303955,0l-1.8237,-0.607895" id="svg_34" fill-opacity="null" stroke-opacity="null" stroke-width="1.5" stroke="#000" fill="none"/>
  <path d="m441.641327,194.969604c0.911835,3.03952 0.696899,3.736435 0.911835,3.95137c0.214935,0.214935 0.303955,0.303955 0.303955,0.60791c0,0.30394 -0.139465,0.514709 -0.303955,0.91185c-0.465271,1.12326 -0.742706,1.939407 -1.21579,3.647415c-0.243408,0.878769 -0.149994,1.786789 -0.303955,2.735565c-0.146057,0.90007 -0.303955,1.8237 -0.60791,2.73555c-0.303955,0.911865 -0.387329,1.788742 -0.60791,2.431625c-0.50296,1.465958 -0.164246,2.143921 -0.303925,2.73555c-0.156158,0.661484 -0.451752,1.162231 -0.60791,1.823715c-0.139679,0.591629 -0.387329,1.484787 -0.60791,2.127655c-0.502991,1.465973 -0.544037,2.151489 -0.911865,3.03952c-0.260071,0.627899 -0.60788,1.215805 -0.911835,1.8237c-0.303955,0.60791 -0.185608,1.264221 -0.60791,2.12767c-0.481506,0.984467 -0.911865,1.519745 -0.911865,1.8237c0,0.303955 -0.08902,0.696945 -0.303925,0.91185c-0.214935,0.214935 -0.139465,0.514725 -0.303955,0.911865c-0.116302,0.280807 -0.07132,0.654175 -0.303955,1.215805c-0.16449,0.397125 -0.69693,0.39296 -0.911865,0.607895c-0.429871,0.429855 0.319611,1.00264 0,1.51976c-0.35733,0.578156 -0.392975,0.696915 -0.60791,0.91185c-0.214935,0.214935 -0.303955,0.303955 -0.303955,0.60791c0,0.30394 -0.187592,0.327072 -0.303925,0.607895c-0.16449,0.397141 0.303925,0.911835 0.303925,0.60791c0,-0.60788 -1.076111,0.320206 -1.21579,0.91185c-0.156158,0.661469 -0.392975,1.304825 -0.60791,1.51976c-0.214935,0.214935 -0.303955,0.303955 -0.60791,0.303955l-0.303925,0l-0.911865,0.30394l-0.303955,-0.91185" id="svg_35" fill-opacity="null" stroke-opacity="null" stroke-width="1.5" stroke="#000" fill="none"/>
  <path d="m445.288727,227.796356c3.343475,-2.43161 4.05661,-2.949997 4.559265,-3.647415c0.3974,-0.551376 0.33371,-1.4664 0.911865,-1.823715c0.258545,-0.159805 0.303955,-0.30394 0.911865,-0.607895c0.60788,-0.30394 0.964447,-0.563141 1.21579,-0.911865c0.3974,-0.551361 0.62796,-0.570709 1.21582,-0.91185c0.947845,-0.550064 1.21579,-0.60788 2.43161,-1.215805c0.60788,-0.303955 0.934967,-0.491577 1.21579,-0.607895c0.397125,-0.164505 0.923645,-0.157898 1.8237,-0.303955c0.948792,-0.153961 0.44342,-0.093185 0.60791,0.303955c0.116333,0.280823 1.000885,0.39296 1.21582,0.607895c0.214935,0.214935 0.858276,0.147797 1.519745,0.303955c0.295837,0.069839 0.164276,0.928116 0.303955,1.51976c0.156158,0.661469 0.513458,1.240204 0.303955,2.127655c-0.156158,0.661469 -0.404877,1.893433 -0.911865,3.03952c-0.443329,1.002213 -1.669739,2.698639 -1.8237,3.647415c-0.097382,0.600052 -0.303955,1.519745 -0.911865,2.127655c-0.60788,0.607895 -0.713104,0.822327 -1.21579,1.51976c-0.3974,0.551361 -0.867096,1.268417 -1.21582,1.519745c-0.551361,0.397385 -1.272308,0.514465 -1.8237,0.911865c-0.348724,0.251328 -0.928131,0.468231 -1.519745,0.607895c-0.661469,0.156158 -1.21582,0.303955 -1.82373,0.303955c-0.60788,0 -0.983154,-0.350235 -1.21579,-0.91185c-0.16449,-0.397141 -0.651764,-1.195786 -0.911865,-1.823715c-0.367828,-0.888016 -0.60788,-1.8237 -0.60788,-2.735565c0,-0.91185 0.303925,-1.8237 0.303925,-2.43161c0,-0.91185 0,-1.8237 0.303955,-2.73555c0.303955,-0.911865 0.356567,-1.474991 0.60791,-1.823715c0.3974,-0.551376 0.356567,-1.171036 0.60791,-1.51976c0.3974,-0.551361 0.60791,-0.91185 0.911835,-1.215805l-0.303925,0" id="svg_36" fill-opacity="null" stroke-opacity="null" stroke-width="1.5" stroke="#000" fill="none"/>
  <path d="m459.574432,231.139816c3.343475,0 4.435089,0.238098 6.079041,-0.607895c1.146637,-0.590088 1.519745,-1.51976 2.43161,-2.43161c0.60791,-0.60791 1.21582,-1.21582 2.127655,-1.823715c0.911865,-0.60791 1.888031,-1.736801 2.735565,-2.43161c0.664856,-0.545044 0.968414,-1.4263 1.519775,-1.823715c0.697418,-0.50267 1.245544,-1.466385 1.8237,-1.8237c0.51712,-0.319595 1.056,-0.34935 1.21579,-0.60791c0.35733,-0.57814 0.392975,-0.696915 0.60791,-0.91185c0.214935,-0.214935 0.747375,-0.21077 0.911865,-0.607895c0.116333,-0.280823 -0.09317,-0.13945 0.303955,-0.303955c0.280823,-0.116318 -0.303955,-0.303955 -0.303955,0c0,0.303955 -0.266754,0.931915 -0.60791,1.51976c-0.550079,0.947861 -0.940887,2.120758 -1.21582,3.34346c-0.339996,1.5121 -0.545258,3.066101 -1.21579,4.559265c-0.556854,1.240021 -0.875824,2.43927 -1.21582,3.95137c-0.274933,1.222687 -0.847961,1.847565 -1.21579,2.735565c-0.260101,0.627914 -0.584778,1.403442 -0.303955,1.51976c0.397125,0.164505 0,-0.303955 0,-0.60791c0,-0.303955 0.250092,-0.646194 0.911865,-1.51976c1.692139,-2.233704 2.735565,-3.647415 3.6474,-5.16716c0.911865,-1.51976 2.042236,-3.133804 3.03952,-3.95137c0.847534,-0.694794 1.632813,-1.0289 2.735565,-1.823715c1.046112,-0.754013 1.223907,-1.145966 1.519745,-1.215805c0.661469,-0.156158 1.519775,-0.607895 1.82373,-0.607895c0.303925,0 0.491547,0.327072 0.60788,0.607895c0.16449,0.397141 -0.303955,0.536148 -0.303955,1.215805c0,0.679657 0.147797,0.858276 0.303955,1.51976c0.069824,0.295822 0.303955,0.303955 0.303955,0.60791c0,0.607895 0.373779,1.831833 0.303955,2.127655c-0.156158,0.661469 -0.443634,1.232071 -0.303955,1.8237c0.156158,0.661484 0.373779,1.527893 0.303955,1.823715c-0.156158,0.661469 -0.176636,1.343124 0.303955,1.8237c0.480591,0.480591 1.223633,0.401337 1.8237,0.303955c0.948792,-0.153961 2.455444,-0.544022 3.343475,-0.91185c0.62793,-0.260101 1.171021,-0.356567 1.519745,-0.60791c0.551361,-0.3974 0.735229,-1.039154 1.21582,-1.519745c0.48056,-0.480576 0.60788,-0.60791 0.911835,-0.60791c0.60791,0 0.911865,-0.303955 1.21582,-0.607895c0.303955,-0.303955 1.46637,-0.33371 1.8237,-0.911865c0.31958,-0.517105 0.040924,-0.854538 0.911865,-1.519745c0.763855,-0.58342 1.122345,-0.968399 1.519745,-1.51976c0.251343,-0.348724 0.394257,-1.098434 1.21582,-1.823715c0.509491,-0.449783 1.259644,-0.89183 1.519745,-1.51976c0.367828,-0.888016 1.128906,-1.888046 1.8237,-2.73555c0.817566,-0.997284 1.958527,-1.939423 2.43161,-3.647415c0.243408,-0.878784 0.303955,-1.823715 0.303955,-2.43161c0,-0.60791 0.303955,-0.785965 0.303955,-1.21582c0,-0.42984 -0.431763,0.026077 -0.60791,0.60791c-0.317566,1.048874 -1.283051,2.528427 -2.127655,4.255325c-0.962982,1.968933 -2.187439,3.311096 -3.6474,6.079025c-0.634186,1.202316 -0.7742,3.073654 -1.21582,4.559265c-0.4664,1.56897 -1.21579,3.34346 -1.8237,4.86322c-0.60791,1.51976 -1.016785,3.093307 -1.519745,4.559265c-0.661713,1.928619 -1.048157,2.676498 -1.519775,3.95137c-0.434814,1.175385 -0.398407,1.848114 -0.60791,2.735565c-0.156158,0.661484 -0.460083,1.162247 -0.303955,1.823715c0.139648,0.591629 -0.139435,1.122635 -0.303925,1.519745c-0.116302,0.280823 -0.44342,0.514725 -0.60791,0.911865c-0.116302,0.280807 0.51889,0.39296 0.303955,0.607895c-0.214935,0.214935 -0.08902,0.392975 -0.303955,0.60791c-0.214935,0.214935 -0.392975,0.089005 -0.60791,0.30394c-0.214935,0.214935 -0.44342,0.514725 -0.60791,0.911865c-0.116302,0.280807 0.139465,0.818665 0.303955,1.215805c0.116333,0.280823 0.09317,0.747345 -0.303955,0.91185c-0.280823,0.116318 -0.60788,0.303955 -0.60788,0.91185c0,0.303955 0.578125,0.85849 0,1.215805c-0.258545,0.159805 -0.08902,0.214935 -0.303955,0c-0.214935,-0.214935 0.16449,0.21077 0,0.60791c-0.116333,0.280823 -0.60791,0.303955 -0.303955,0.303955c0.303955,0 -0.303955,0.1259 -0.303955,-0.303955c0,-0.429855 1.21579,-0.91185 1.8237,-1.51976c0.60791,-0.607895 0.9664,-1.965332 2.43161,-4.255325c1.04892,-1.639389 1.948792,-2.858353 3.03952,-4.25531c0.79361,-1.016434 1.413025,-2.187164 2.127655,-3.34346c0.798981,-1.292786 1.607483,-2.391586 2.127655,-3.64743c0.367828,-0.888016 1.097473,-2.480026 1.519775,-3.34346c0.481476,-0.984467 1.318359,-1.917938 1.8237,-2.735565c0.451965,-0.731308 1.01709,-1.126282 1.519745,-1.8237c0.3974,-0.551376 1.002655,-0.89621 1.519775,-1.215805c0.578156,-0.357315 0.637634,-1.162445 1.21579,-1.51976c0.51709,-0.319595 0.60791,-0.607895 0.911865,-0.91185c0.303955,-0.303955 0.514771,-1.076355 0.911865,-0.91185c0.280823,0.116318 0.303955,0 0.60791,0c0.303955,0 0.303955,0.607895 0.60791,0.607895c0.607849,0 0.460022,0.250381 0.303894,0.91185c-0.139648,0.591644 -0.303894,1.215805 -0.303894,2.12767c0,0.607895 -0.157898,1.227585 -0.303955,2.127655c-0.153992,0.948761 -0.544006,1.847549 -0.911865,2.735565c-0.260071,0.627914 -0.214905,0.696915 0,0.91185c0.214905,0.214935 -0.303955,0.607895 0,0.607895c0.303955,0 0.303955,-0.30394 0.60791,-0.30394c0.303955,0 0.393005,-0.08902 0.60791,-0.303955c0.214905,-0.21489 0.514648,-0.443405 0.911804,-0.60791c0.561646,-0.232635 0.911865,-0.30394 1.21582,-0.607895c0.303955,-0.303955 0.60791,-0.60791 0.911865,-0.60791c0.303955,0 0.60791,0 0.60791,-0.30394c0,-0.303955 0.44342,-0.21077 0.60791,-0.60791c0.116333,-0.280823 0.664429,-0.514465 1.215759,-0.91185c0.348694,-0.251343 0.393005,-0.392975 0.60791,-0.60791c0.214905,-0.21492 0,-0.607895 0,-0.91185c0,-0.303955 0,0 -0.303955,0l0,-0.303955l-0.303955,0l-0.911804,0.303955" id="svg_37" fill-opacity="null" stroke-opacity="null" stroke-width="1.5" stroke="#000" fill="none"/>
  <path d="m535.258362,220.501526c0.607849,-2.43161 0.48053,-3.16684 0,-3.647415c-0.480591,-0.480606 -1.310059,-0.406555 -2.127686,-0.911865c-0.365662,-0.225983 -0.858276,-0.156143 -1.519775,0c-0.591675,0.139664 -1.272278,0.21051 -1.823669,0.60791c-0.697449,0.50267 -2.220581,0.632782 -3.343506,1.8237c-0.659424,0.699326 -1.343079,1.951035 -1.823669,2.43161c-0.480591,0.480591 -1.21582,0.60791 -2.127686,1.51976c-0.60791,0.60791 -1.059692,0.858276 -1.21582,1.51976c-0.139648,0.591644 -0.347839,1.499741 -0.60791,2.127655c-0.367798,0.888016 -0.747314,1.426575 -0.911804,1.823715c-0.232605,0.561615 0.164307,0.928116 0.303955,1.51976c0.156128,0.661469 0.911804,1.215805 1.215759,1.519745c0.303955,0.303955 0.911865,0.60791 1.21582,0.60791c0.303955,0 0.747375,0.21077 0.911865,0.607895c0.116333,0.280823 0.303955,0.303955 0.60791,0.303955c0.303955,0 0.616028,-0.069839 0.911865,0c0.661499,0.156158 0.911804,0.303955 1.823669,0.303955c0.303955,0 0.941589,-0.250595 1.519775,-0.60791c1.292786,-0.798981 2.161743,-1.494919 3.03949,-2.73555c0.632935,-0.894653 1.577637,-1.787704 2.127686,-2.735565c0.682312,-1.175674 1.500854,-2.446014 2.43158,-3.647415c1.191895,-1.538589 1.82373,-2.12767 2.127686,-2.735565c0.303955,-0.60791 0.08905,-1.304825 0.303955,-1.51976c0.214905,-0.214935 0.303955,-0.607895 0.303955,-0.91185c0,-0.303955 -0.393005,-0.51889 -0.60791,-0.303955c-0.214905,0.214935 -0.210754,0.443405 -0.60791,0.60791c-0.280823,0.116318 -0.720825,0.530899 -1.519775,1.8237c-0.7146,1.156296 -1.352051,2.068573 -1.823669,3.34346c-0.434814,1.1754 -0.60791,2.431625 -0.60791,3.95137c0,0.911865 0,1.51976 0,2.12767c0,0.607895 0.116333,1.238937 0,1.519745c-0.16449,0.397141 0.056519,0.514465 0.60791,0.911865c0.697449,0.50267 1.232056,1.076157 1.823669,1.215805c0.661499,0.156143 1.519775,0.30394 2.735596,0.30394c1.21582,0 2.173889,-0.071304 2.735535,-0.30394c0.79425,-0.328995 1.770142,-1.667557 2.431641,-1.823715c0.591675,-0.139664 1.21582,-0.30394 1.519775,-0.607895c0.303894,-0.30394 -0.303955,0 -0.911865,0l-2.431641,0.30394" id="svg_38" fill-opacity="null" stroke-opacity="null" stroke-width="1.5" stroke="#000" fill="none"/>
 </g>
</svg>