<?xml version="1.0" encoding="UTF-8" standalone="yes"?>
<!-- Created with sK1/UniConvertor (http://sk1project.org/) -->
<svg xmlns="http://www.w3.org/2000/svg" xmlns:xlink="http://www.w3.org/1999/xlink"
  width="595.276pt" height="841.89pt" viewBox="0 0 595.276 841.89"
  fill-rule="evenodd">
<g>
<path style="stroke:#000000; stroke-width:0.850394; stroke-linejoin:round; stroke-linecap:round; fill:none" d="M 149.25 660.719C 165.497 783.364 333.142 862.453 523.433 837.245C 713.723 812.037 854.993 692.026 838.746 569.381C 822.499 446.736 654.854 367.647 464.564 392.855C 274.273 418.063 133.003 538.074 149.25 660.719z"/>
<path style="stroke:#000000; stroke-width:0.850394; stroke-linejoin:round; stroke-linecap:round; fill:none" d="M 679.22 706.584L 632.104 700.629L 591.264 693.339L 556.348 684.801L 527.005 675.099L 501.861 663.781L 482.045 651.379L 467.153 637.992L 455.695 621.709L 449.483 604.425L 447.924 586.286L 453.015 557.789L 465.244 528.181L 486.527 491.871L 511.756 455.508L 537.476 419.935L 560.235 385.997L 576.577 354.535L 581.998 336.505L 582.74 319.975L 578.55 305.048L 569.784 291.724L 556.833 279.995L 540.086 269.854L 508.702 257.604L 470.968 248.885L 428.2 243.675L 381.713 241.947L 332.822 243.679L 282.841 248.846L 233.086 257.423L 184.87 269.386L 139.51 284.711L 98.3194 303.373L 62.6135 325.348L 33.707 350.612L 16.5408 372.883L 5.08898 397.181L 0 423.492L 1.92247 451.805L 11.505 482.109L 29.3961 514.39L 51.8359 543.624L 81.2649 574.296L 118.092 606.397L 162.724 639.919L 215.572 674.856L 277.042 711.199L 347.543 748.941"/>
</g>
</svg>